<svg width="303" height="118" viewBox="0 0 303 118" fill="none" xmlns="http://www.w3.org/2000/svg">
<path d="M0 0H302.726V117.237H0V0Z" fill="#FF9308"/>
<path d="M10.6434 41.0634C8.50093 41.0634 6.62451 40.59 5.01763 39.6397C3.41075 38.6893 2.18399 37.4108 1.33736 35.8039C0.49072 34.197 0.0656738 32.4588 0.0656738 30.5927C0.0656738 29.7634 0.14861 29.0204 0.273013 28.3638C0.459619 27.3963 0.680781 26.2386 0.974512 24.8909C1.26824 23.5432 1.53433 22.3683 1.77968 21.3661L7.84436 22.8693L7.48152 24.5281C6.88714 27.2442 6.44482 29.0895 6.44482 30.1262C6.44482 31.1975 6.80766 32.0441 7.53335 32.6661C8.25904 33.2882 9.29574 33.5992 10.6434 33.5992H32.9359C34.3527 33.5992 35.3894 33.2951 36.046 32.6903C36.7026 32.089 37.0308 31.2839 37.0308 30.2817C37.0308 28.934 36.5816 26.014 35.6831 21.5216L41.9033 19.9631C43.0437 24.8045 43.6139 28.3811 43.6139 30.6964C43.6139 32.4242 43.2268 34.083 42.4493 35.6726C41.6718 37.2622 40.5211 38.558 39.0006 39.5602C37.4801 40.5623 35.6313 41.0634 33.4542 41.0634H10.6434ZM289.726 110.619C287.722 110.619 285.776 110.221 283.893 109.427C282.009 108.632 280.565 107.574 279.563 106.261L282.725 102.114C284.421 104.222 286.65 105.276 289.415 105.276C291.454 105.276 293.009 104.734 294.08 103.645C295.151 102.557 295.687 100.974 295.687 98.9007V97.4493C293.959 99.3845 291.696 100.352 288.896 100.352C286.719 100.352 284.801 99.7646 283.139 98.5897C281.481 97.4148 280.195 95.7561 279.279 93.6136C278.364 91.4711 277.904 88.9657 277.904 86.0975V85.7865C277.904 82.984 278.371 80.5408 279.304 78.4501C280.237 76.3595 281.532 74.7526 283.191 73.626C284.853 72.503 286.771 71.9431 288.948 71.9431C292.024 71.9431 294.408 72.9971 296.101 75.1051L296.361 72.4615H302.736V98.9526C302.736 100.577 302.339 102.28 301.544 104.06C300.749 105.84 299.384 107.377 297.449 108.673C295.514 109.969 292.94 110.619 289.726 110.619ZM284.905 86.4604C284.905 89.0521 285.413 91.0909 286.433 92.5769C287.452 94.0628 288.879 94.8058 290.711 94.8058C292.991 94.8058 294.65 93.89 295.687 92.0585V80.1849C294.616 78.3879 292.974 77.4895 290.762 77.4895C288.896 77.4895 287.452 78.2497 286.433 79.7702C285.413 81.2907 284.905 83.5196 284.905 86.4604ZM246.019 72.4615H252.605L252.864 75.7789C254.799 73.2217 257.443 71.9431 260.795 71.9431C266.497 71.9431 269.386 75.2951 269.451 81.9991V99.8337H262.454V82.2064C262.419 80.5477 262.067 79.3486 261.393 78.6056C260.719 77.8627 259.568 77.4895 257.944 77.4895C256.838 77.4895 255.86 77.7486 255.014 78.267C254.167 78.7853 253.504 79.511 253.02 80.4441V99.8337H246.019V72.4615ZM229.117 72.4615H236.17V99.8337H229.117V72.4615ZM228.702 65.3083C228.702 64.2716 229.058 63.4146 229.767 62.7407C230.475 62.0669 231.436 61.7317 232.645 61.7317C233.82 61.7317 234.77 62.0669 235.496 62.7407C236.222 63.4146 236.585 64.2716 236.585 65.3083C236.585 66.345 236.222 67.1985 235.496 67.8724C234.77 68.5462 233.82 68.8849 232.645 68.8849C231.436 68.8849 230.475 68.5462 229.767 67.8724C229.058 67.1985 228.702 66.345 228.702 65.3083ZM208.639 100.352C206.496 100.352 204.527 99.9547 202.73 99.1599C200.933 98.3651 199.505 97.2697 198.452 95.8667C197.398 94.4671 196.872 92.9052 196.872 91.1773H203.507C203.542 92.5596 204.032 93.6136 204.986 94.3393C205.936 95.0649 207.187 95.4278 208.742 95.4278C210.159 95.4278 211.258 95.141 212.036 94.5708C212.813 94.0006 213.2 93.2507 213.2 92.3177C213.2 91.3501 212.744 90.5899 211.828 90.037C210.913 89.484 209.434 88.983 207.395 88.5338C204.181 87.8426 201.769 86.8232 200.162 85.4755C198.555 84.1243 197.753 82.4138 197.753 80.3404C197.753 78.7508 198.21 77.3167 199.125 76.0381C200.041 74.7595 201.32 73.7574 202.961 73.0317C204.603 72.306 206.479 71.9431 208.587 71.9431C210.833 71.9431 212.813 72.3129 214.524 73.0559C216.234 73.8023 217.565 74.8286 218.515 76.1418C219.465 77.4549 219.942 78.9754 219.942 80.7032H212.941C212.941 79.5283 212.544 78.5884 211.749 77.88C210.954 77.1715 209.883 76.8156 208.535 76.8156C207.326 76.8156 206.341 77.1197 205.581 77.7245C204.82 78.3292 204.44 79.0963 204.44 80.0294C204.44 81.0315 204.948 81.7745 205.971 82.2583C206.99 82.7421 208.431 83.2086 210.298 83.6578C211.265 83.8652 211.939 84.0379 212.319 84.1762C214.911 84.9053 216.839 85.8971 218.1 87.1584C219.362 88.4197 219.994 90.0542 219.994 92.0585C219.994 93.6827 219.51 95.1237 218.543 96.385C217.572 97.6498 216.234 98.6243 214.524 99.3154C212.813 100.007 210.85 100.352 208.639 100.352ZM181.215 72.4615H188.264V99.8337H181.215V72.4615ZM180.8 65.3083C180.8 64.2716 181.153 63.4146 181.861 62.7407C182.569 62.0669 183.53 61.7317 184.739 61.7317C185.914 61.7317 186.865 62.0669 187.59 62.7407C188.316 63.4146 188.679 64.2716 188.679 65.3083C188.679 66.345 188.316 67.1985 187.59 67.8724C186.865 68.5462 185.914 68.8849 184.739 68.8849C183.53 68.8849 182.569 68.5462 181.861 67.8724C181.153 67.1985 180.8 66.345 180.8 65.3083ZM168.719 100.352C163.567 100.352 160.992 97.6912 160.992 92.3695V77.4376H156.897V72.4615H160.992V65.723H167.993V72.4615H172.762V77.4376H167.993V91.7475C167.993 92.8188 168.201 93.5859 168.615 94.0524C169.03 94.519 169.773 94.7539 170.844 94.7539C171.328 94.7539 172.054 94.6848 173.021 94.5466V99.7301C171.639 100.145 170.205 100.352 168.719 100.352ZM135.59 72.4615H142.276L142.432 75.8308C143.952 73.239 146.026 71.9431 148.652 71.9431C149.551 71.9431 150.311 72.0468 150.936 72.2541L150.833 78.7853C150.349 78.6471 149.481 78.578 148.237 78.578C145.404 78.578 143.538 79.6147 142.639 81.6881V99.8337H135.59V72.4615ZM116.355 100.352C113.695 100.352 111.341 99.7923 109.302 98.6692C107.264 97.5461 105.684 95.9634 104.561 93.9246C103.438 91.8857 102.875 89.5186 102.875 86.8232V86.0975C102.875 83.3986 103.386 80.9797 104.406 78.8372C105.425 76.6947 106.894 75.0118 108.812 73.7815C110.73 72.5548 112.983 71.9431 115.578 71.9431C119.31 71.9431 122.237 73.1353 124.366 75.5197C126.491 77.9041 127.552 81.2389 127.552 85.5273V88.3264H109.976V88.4301C110.184 90.3652 110.902 91.9203 112.129 93.0952C113.356 94.2701 114.921 94.8576 116.822 94.8576C119.621 94.8576 121.85 93.8036 123.509 91.6957L126.982 95.3241C125.876 96.9137 124.397 98.1508 122.548 99.032C120.699 99.9132 118.636 100.352 116.355 100.352ZM120.658 83.5541V83.0358C120.589 81.2389 120.112 79.8566 119.231 78.889C118.349 77.9214 117.116 77.4376 115.526 77.4376C114.04 77.4376 112.813 77.9664 111.842 79.0203C110.875 80.0743 110.27 81.5844 110.028 83.5541H120.658ZM71.7153 72.4615H79.0275L84.3664 91.1773L89.7054 72.4615H97.0141L87.6839 99.8337H81.049L71.7153 72.4615ZM50.7705 100.352C48.628 100.352 46.7447 99.775 45.1205 98.6174C43.4964 97.4597 42.242 95.7906 41.3608 93.6136C40.4796 91.4365 40.0407 88.8793 40.0407 85.942C40.0407 83.1049 40.4796 80.6341 41.3608 78.5262C42.242 76.4182 43.4964 74.7941 45.1205 73.6537C46.7447 72.5133 48.6453 71.9431 50.8224 71.9431C53.5523 71.9431 55.7985 72.9626 57.5609 75.0014V60.9507H64.5621V99.8337H58.2348L57.8719 96.8792C56.1095 99.1945 53.7424 100.352 50.7705 100.352ZM47.0903 86.4604C47.0903 89.1558 47.5568 91.2188 48.4898 92.6529C49.4228 94.087 50.7705 94.8058 52.5329 94.8058C54.8482 94.8058 56.5242 93.8036 57.5609 91.7993V80.4959C56.5242 78.4916 54.8655 77.4895 52.5848 77.4895C50.8915 77.4895 49.5541 78.1564 48.5693 79.4868C47.581 80.8173 47.0903 82.7248 47.0903 85.2163V86.4604ZM13.7535 62.9757H20.4921L34.2836 99.8337H26.612L23.9166 91.8512H10.4361L7.74069 99.8337H0.0656738L13.7535 62.9757ZM22.0471 86.1494L17.1228 71.5803L12.3022 86.1494H22.0471ZM14.0127 16.1792H20.1811V22.351H14.0127V16.1792ZM23.7093 16.1792H29.9295V22.351H23.7093V16.1792ZM60.2045 41.0634C56.576 41.0634 53.9048 40.0094 52.1943 37.9015C50.4837 35.7935 49.6302 32.9599 49.6302 29.4005V6.43424H56.2132V29.4005C56.2132 30.7137 56.2927 31.6467 56.4482 32.1996C56.6037 32.7525 56.9493 33.1257 57.4849 33.3123C58.0205 33.5024 58.9259 33.5992 60.2045 33.5992H61.5522H62.0705C106.379 33.5992 169.766 33.5992 214.075 33.5992H214.645H216.459C219.258 33.5992 221.642 33.4091 223.612 33.029L221.487 30.0744C219.897 27.7937 218.653 26.0658 217.755 24.8909L221.539 17.7861H235.693C237.11 17.7861 238.337 18.1074 239.373 18.7467C240.41 19.386 241.215 20.2327 241.785 21.2867C242.356 22.3406 242.639 23.4914 242.639 24.7354C242.639 26.8779 241.879 28.7785 240.358 30.4372L237.352 33.34C238.319 33.5128 239.581 33.5992 241.136 33.5992H245.023H245.594H250.933C252.387 33.5992 253.407 33.4022 253.994 33.0013C254.582 32.6074 254.876 31.9232 254.876 30.9556V23.6987H261.459V31.2148C261.459 32.1132 261.7 32.7352 262.184 33.0808C262.668 33.4264 263.428 33.5992 264.465 33.5992H266.746H267.264H269.389C270.461 33.5992 271.255 33.4091 271.774 33.029C272.292 32.6489 272.551 31.9577 272.551 30.9556V6.43424H279.138V30.9556V31.2148C279.138 32.1132 279.38 32.7352 279.863 33.0808C280.347 33.4264 281.107 33.5992 282.144 33.5992H283.129H283.647H287.69C289.107 33.5992 290.109 33.4022 290.697 33.0013C291.284 32.6074 291.578 31.9232 291.578 30.9556V23.6987H298.165V31.2148C298.165 32.1132 298.406 32.7352 298.89 33.0808C299.374 33.4264 300.134 33.5992 301.171 33.5992H302.726V41.0634H301.171C300.1 41.0634 298.977 40.8491 297.802 40.4172C296.623 39.9852 295.587 39.3528 294.688 38.5235C293.755 39.3528 292.677 39.9852 291.45 40.4172C290.223 40.8491 288.969 41.0634 287.69 41.0634H283.647H283.129H282.144C281.073 41.0634 279.991 40.856 278.903 40.4414C277.814 40.0267 276.857 39.4047 276.028 38.5753C275.095 39.4047 274.047 40.0267 272.89 40.4414C271.732 40.856 270.616 41.0634 269.545 41.0634H267.264H266.746H264.465C263.394 41.0634 262.271 40.8491 261.096 40.4172C259.921 39.9852 258.884 39.3528 257.986 38.5235C257.018 39.3528 255.919 39.9852 254.692 40.4172C253.466 40.8491 252.215 41.0634 250.933 41.0634H245.594H245.023H238.544C236.92 41.0634 235.475 40.8388 234.214 40.3895C232.953 39.9403 231.667 39.2664 230.354 38.368C227.068 40.1649 223.318 41.0634 219.103 41.0634H214.645H214.075C169.766 41.0634 106.379 41.0634 62.0705 41.0634H61.5522H60.2045ZM227.863 28.2602L230.665 32.0959C232.013 30.7482 233.153 29.5388 234.086 28.4675L235.641 26.8088C235.987 26.4632 236.16 26.1004 236.16 25.7203C236.16 25.3401 236.011 25.0291 235.717 24.7872C235.424 24.5453 235.019 24.4244 234.501 24.4244H225.064L227.863 28.2602ZM226.774 6.33057H233.672V13.0691H226.774V6.33057ZM241.447 47.3907H247.667V53.6109H241.447V47.3907ZM251.192 47.3907H257.415V53.6109H251.192V47.3907ZM282.87 47.3389H289.764V54.0774H282.87V47.3389Z" fill="white"/>
</svg>
