<svg width="245" height="192" viewBox="0 0 245 192" fill="none" xmlns="http://www.w3.org/2000/svg">
<path d="M0.792725 0H244.542V191.287H0.792725V0Z" fill="#FF9308"/>
<path d="M60.2127 118.139C48.2175 118.139 37.7175 115.477 28.7194 110.156C19.7213 104.835 12.8501 97.6739 8.1094 88.6758C3.36866 79.6777 1 69.9545 1 59.5062C1 54.8587 1.38673 50.698 2.16017 47.0242C3.12696 41.6032 4.43213 35.1223 6.07913 27.5744C7.72268 20.0265 9.22468 13.4488 10.5782 7.83794L44.5403 16.256L42.5066 25.5441C38.636 40.6364 36.7023 51.0882 36.7023 56.8924C36.7023 62.89 38.7326 67.6307 42.7966 71.1146C46.8606 74.5985 52.6682 76.3388 60.2127 76.3388H185.029C192.964 76.3388 198.768 74.6469 202.445 71.2596C206.123 67.8724 207.96 63.3734 207.96 57.7625C207.96 50.2146 205.446 33.862 200.415 8.70805L235.247 0C241.632 27.091 244.826 47.1209 244.826 60.0863C244.826 69.7611 242.647 79.0492 238.293 87.9507C233.939 96.8521 227.506 104.11 218.991 109.721C210.477 115.332 200.125 118.139 187.933 118.139H60.2127ZM104.917 153.551H143.519V191.287H104.917V153.551Z" fill="white"/>
</svg>
