<svg width="245" height="142" viewBox="0 0 245 142" fill="none" xmlns="http://www.w3.org/2000/svg">
<path d="M1.05118 0H245V141.157H1.05118V0Z" fill="#FF9308"/>
<path d="M60.2363 141.157C48.2279 141.157 37.7227 138.496 28.7173 133.167C19.7118 127.842 12.8351 120.678 8.09046 111.673C3.34584 102.664 0.97525 92.933 0.97525 82.4762C0.97525 77.8283 1.3623 73.6643 2.13637 69.984C3.10395 64.5621 4.41018 58.0723 6.05853 50.5183C7.70342 42.9676 9.20664 36.3812 10.5613 30.7657L44.5511 39.1906L42.5157 48.4863C38.6419 63.5945 36.7068 74.0513 36.7068 79.8603C36.7068 85.8627 38.7387 90.6108 42.806 94.0941C46.8733 97.5809 52.6857 99.326 60.2363 99.326H185.155C193.096 99.326 198.905 97.6292 202.585 94.2392C206.266 90.8527 208.104 86.35 208.104 80.7311C208.104 73.1805 205.585 56.8145 200.55 31.6365L235.411 22.9214C241.803 50.0345 245 70.0807 245 83.0567C245 92.7395 242.819 102.035 238.462 110.944C234.104 119.853 227.666 127.116 219.145 132.732C210.623 138.351 200.26 141.157 188.061 141.157H60.2363ZM79.1215 0H113.688V34.5669H79.1215V0ZM133.444 0H168.305V34.5669H133.444V0Z" fill="white"/>
</svg>
