<svg width="171" height="158"  viewBox="0 0 171 158" fill="none" xmlns="http://www.w3.org/2000/svg">
<path  d="M43.971 157.58C35.1035 157.58 27.3415 155.614 20.691 151.678C14.0404 147.745 8.95958 142.454 5.45755 135.8C1.95251 129.15 0.199982 121.96 0.199982 114.237C0.199982 110.804 0.484574 107.727 1.05676 105.01C1.77275 101.005 2.73739 96.2116 3.95367 90.6335C5.16995 85.0554 6.27837 80.1903 7.27895 76.0412L32.3864 82.2634L30.8825 89.1326C28.0216 100.289 26.5926 108.015 26.5926 112.305C26.5926 116.739 28.0935 120.244 31.0982 122.82C34.1029 125.393 38.3929 126.681 43.971 126.681H116.927C120.647 126.681 123.544 125.929 125.617 124.429C127.69 122.928 128.73 120.96 128.73 118.527C128.73 115.666 127.154 112.661 124.009 109.516L81.5228 66.6015L88.1733 32.0545L160.056 0.296509L171 28.6214L111.133 55.014L144.179 88.7012C148.469 92.9941 151.689 97.7484 153.834 102.97C155.979 108.192 157.052 113.521 157.052 118.958C157.052 125.825 155.443 132.188 152.226 138.053C149.005 143.919 144.287 148.64 138.062 152.217C131.839 155.791 124.581 157.58 116.282 157.58H43.971Z" fill="#263238"/>
</svg>
