<svg width="153" height="232" viewBox="0 0 153 232" fill="none" xmlns="http://www.w3.org/2000/svg">
<path d="M0 0.000976562H152.25V231.5H0V0.000976562Z" fill="#FF9308"/>
<g clip-path="url(#clip0_18_5)">
<path d="M0.75 86.999L27.6647 64.7051C29.2954 65.4318 31.0164 66.155 32.8314 66.8817C34.6428 67.6049 36.6386 68.4219 38.8116 69.3294L44.2495 48.6662C48.2375 32.8984 54.9897 20.844 64.5025 12.5064C74.0187 4.1688 85.3013 0 98.3536 0C108.864 0 118.245 2.80934 126.492 8.42801C134.739 14.0467 141.217 21.8419 145.931 31.8102C150.643 41.7785 153 53.1966 153 66.0646C153 80.0209 150.778 91.8041 146.338 101.411C141.898 111.017 136.008 118.176 128.665 122.888C121.325 127.599 113.304 129.956 104.605 129.956C98.0824 129.956 90.3776 128.461 81.4976 125.471C72.6141 122.481 60.2919 117.721 44.5207 111.198L35.2791 107.391V231.499H0.75V86.999ZM70.893 81.8358C89.0181 88.5393 100.617 91.8945 105.693 91.8945C115.662 91.8945 120.647 83.3761 120.647 66.3393C120.647 57.0942 118.697 49.9805 114.803 44.9946C110.905 40.0122 105.784 37.5192 99.4418 37.5192C94.1848 37.5192 89.5605 39.4211 85.576 43.2283C81.588 47.0355 78.5978 52.5638 76.6021 59.8131L70.893 81.8358Z" fill="white"/>
</g>
<defs>
<clipPath id="clip0_18_5">
<rect width="153" height="232" fill="white"/>
</clipPath>
</defs>
</svg>
