<svg width="303" height="105" viewBox="0 0 303 105" fill="none" xmlns="http://www.w3.org/2000/svg">
<path d="M0 0H302.479V104.517H0V0Z" fill="#FF9308"/>
<path d="M13.7526 99.7974C10.9489 99.7974 8.5147 99.1517 6.4499 97.8603C4.38856 96.569 2.7968 94.7113 1.67808 92.284C0.559359 89.8566 0 86.9735 0 83.6346V81.3178C0 79.1149 0.400529 76.7911 1.20504 74.3465C2.00955 71.9053 3.44248 69.7784 5.50727 67.9656C7.56862 66.1564 10.3482 65.2483 13.8459 65.2483C17.7234 65.2483 20.8344 66.291 23.1823 68.3696C25.5303 70.4482 26.8769 73.3314 27.2222 77.019H20.6065C20.4477 74.7505 19.8193 73.0966 18.7144 72.0573C17.6129 71.0145 15.9901 70.4966 13.8459 70.4966C11.4841 70.4966 9.70247 71.3771 8.50779 73.1415C7.30966 74.9059 6.71232 77.5369 6.71232 81.0346V83.7762C6.71232 87.4017 7.28549 90.0949 8.43528 91.8593C9.58508 93.6237 11.3564 94.5042 13.7526 94.5042C15.8969 94.5042 17.5197 94.0173 18.6211 93.0401C19.7226 92.063 20.3683 90.4574 20.5582 88.22H27.1773C27.0495 90.0155 26.5454 91.7868 25.6615 93.5374C24.781 95.2845 23.355 96.7658 21.3869 97.9777C19.4153 99.1931 16.8706 99.7974 13.7526 99.7974ZM8.68043 26.4833C6.98164 30.05 6.13224 33.3337 6.13224 36.3446C6.13224 38.8928 6.72613 40.8056 7.92081 42.0832C9.11549 43.3573 11.1181 43.9961 13.9287 43.9961H18.1481C20.2405 43.9961 21.8081 43.8131 22.8543 43.454C23.904 43.0949 24.6153 42.4734 24.9882 41.5929C25.3645 40.709 25.5544 39.4003 25.5544 37.667V22.2673H31.7834V37.667C31.7834 41.7862 30.6785 45.0492 28.4721 47.4523C26.2657 49.8555 22.8233 51.0571 18.1481 51.0571H13.9287C10.9869 51.0571 8.46981 50.4045 6.37739 49.0959C4.28152 47.7873 2.69667 46.0229 1.61938 43.7992C0.538643 41.5756 0 39.0896 0 36.3446C0 34.3488 0.341831 32.2219 1.02895 29.9672C1.71606 27.7125 2.53438 25.6339 3.48046 23.7383L8.68043 26.4833ZM13.9287 17.7545H20.4512V24.1284H13.9287V17.7545ZM47.4765 38.6959C44.0444 38.6959 41.5204 37.7015 39.901 35.7058C38.2816 33.7101 37.4736 31.0306 37.4736 27.6607V5.93197H43.7026V27.6607C43.7026 28.9037 43.7751 29.7876 43.9235 30.309C44.0686 30.8338 44.3966 31.186 44.9041 31.3656C45.4117 31.5451 46.268 31.6349 47.4765 31.6349H48.4088H49.2444H53.8539C55.3248 31.6349 56.371 31.3828 56.9925 30.8753C57.614 30.3677 57.8937 29.6392 57.8281 28.6931C57.6624 26.6628 57.2377 23.9489 56.5506 20.5513L62.4376 19.0769C62.8313 20.8102 63.1973 22.6575 63.5426 24.6222C63.8844 26.5834 64.057 28.1682 64.057 29.3767C64.057 31.0134 63.6979 32.5326 62.9763 33.9414C62.2581 35.3467 61.1705 36.4896 59.7168 37.3735C58.2597 38.2574 56.4711 38.6959 54.3442 38.6959H49.2444H48.4088H47.4765ZM45.6638 44.6797H51.4991V50.5668H45.6638V44.6797ZM54.8345 44.6797H60.7216V50.5668H54.8345V44.6797ZM83.7727 22.2673V29.3767C83.7727 30.2296 83.9937 30.8166 84.4357 31.1446C84.8707 31.4657 85.5647 31.628 86.5246 31.6349H86.5695H87.5018H89.7565C91.1307 31.6349 92.0941 31.445 92.65 31.0686C93.2059 30.6957 93.4856 30.05 93.4856 29.1316V22.2673H99.7145V29.3767C99.7145 30.2296 99.9424 30.8166 100.402 31.1446C100.857 31.4726 101.579 31.6349 102.56 31.6349H104.718H105.208H108.298C109.441 31.6349 110.266 31.407 110.774 30.9478C111.281 30.4886 111.534 29.722 111.534 28.6413V22.2673H117.762V28.5446C117.762 30.606 118.76 31.6349 120.756 31.6349C122.783 31.6349 123.798 30.606 123.798 28.5446L123.746 22.2673H129.979V28.5446C129.979 30.5403 130.973 31.5693 132.969 31.6349C133.918 31.6004 134.636 31.3414 135.127 30.8511C135.617 30.3608 135.862 29.5908 135.862 28.5446V22.2673H142.091V28.6413C142.091 29.722 142.336 30.4886 142.827 30.9478C143.317 31.407 144.152 31.6349 145.33 31.6349H148.42H148.91H149.694C150.347 31.6349 150.848 31.4795 151.189 31.1688C151.535 30.858 151.787 30.3435 151.949 29.6219L153.227 24.9157C153.945 22.0705 155.153 19.8952 156.855 18.3933C158.554 16.8878 160.598 16.1351 162.988 16.1351C164.883 16.1351 166.575 16.6496 168.063 17.682C169.552 18.7109 170.719 20.1335 171.571 21.9462C172.421 23.7624 172.846 25.7996 172.846 28.0543C172.846 30.7682 172.404 32.9815 171.52 34.701C170.639 36.4171 169.534 37.6601 168.212 38.4266C166.886 39.1966 165.505 39.5799 164.065 39.5799C162.953 39.5799 161.786 39.3589 160.56 38.9169C159.331 38.475 157.508 37.6843 155.091 36.5379C154.338 37.225 153.503 37.7568 152.588 38.1331C151.673 38.5095 150.741 38.6959 149.791 38.6959H148.91H148.42H145.575C144.135 38.6959 142.861 38.437 141.749 37.9122C140.637 37.3908 139.788 36.7209 139.198 35.9026C138.642 36.6864 137.758 37.3493 136.549 37.888C135.341 38.4266 134.163 38.6959 133.017 38.6959C130.6 38.6959 128.539 37.7671 126.837 35.9026C126.184 36.7209 125.3 37.3908 124.188 37.9122C123.076 38.437 121.868 38.6959 120.559 38.6959C119.447 38.6959 118.28 38.4266 117.055 37.888C115.825 37.3493 114.952 36.6864 114.427 35.9026C113.84 36.7209 112.98 37.3908 111.855 37.9122C110.726 38.437 109.458 38.6959 108.053 38.6959H105.208H104.718H102.56C101.544 38.6959 100.484 38.4922 99.3726 38.0848C98.2608 37.6774 97.2768 37.08 96.4274 36.2928C95.5124 37.08 94.4731 37.6774 93.3129 38.0848C92.1528 38.4922 90.9684 38.6959 89.7565 38.6959H87.5018H86.5695H86.5177H84.1663V38.1642C84.0144 38.0882 83.866 38.0054 83.7244 37.9122C83.3964 42.097 82.0256 45.3358 79.6051 47.625C77.1847 49.9142 73.8493 51.0571 69.5988 51.0571H66.5085V43.9961H69.5988C71.6602 43.9961 73.2519 43.7578 74.381 43.2848C75.5101 42.8083 76.3111 42.0072 76.7842 40.8816C77.2572 39.7525 77.4955 38.1573 77.4955 36.0994V22.2673H83.7727ZM85.4404 10.69H91.2792V16.5287H85.4404V10.69ZM94.6146 10.69H100.498V16.5287H94.6146V10.69ZM119.382 10.69H125.221V16.5287H119.382V10.69ZM124.188 3.62893H129.733V9.17073H124.188V3.62893ZM128.701 10.69H134.54V16.5287H128.701V10.69ZM158.081 30.6059C159.849 31.4208 161.154 31.9767 162.007 32.2737C162.856 32.5672 163.623 32.7122 164.31 32.7122C166.109 32.7122 167.007 31.1757 167.007 28.1026C167.007 26.4349 166.648 25.1539 165.93 24.2527C165.211 23.355 164.279 22.9027 163.133 22.9027C162.187 22.9027 161.351 23.248 160.633 23.9351C159.911 24.6222 159.39 25.6166 159.062 26.9252L158.081 30.6059ZM196.977 10.4448C198.055 11.6568 199.087 12.7824 200.068 13.8286C202.485 16.4804 204.294 18.521 205.485 19.9609C206.68 21.4007 207.619 22.8474 208.306 24.3011C208.993 25.7582 209.335 27.2705 209.335 28.8381C209.335 30.7026 208.845 32.429 207.864 34.0139C206.884 35.5988 205.568 36.8487 203.918 37.7671C202.267 38.6821 200.458 39.1379 198.497 39.1379C196.501 39.1379 194.671 38.6821 193.003 37.7671C191.335 36.8487 190.013 35.5988 189.029 34.0139C188.048 32.429 187.558 30.7026 187.558 28.8381C187.558 26.5834 188.124 24.5462 189.253 22.7335C190.379 20.9173 192.057 18.8318 194.277 16.4804L192.613 14.6642L196.977 10.4448ZM193.787 28.2511C193.787 29.3629 194.198 30.309 195.016 31.0963C195.831 31.88 196.991 32.2737 198.497 32.2737C199.968 32.2737 201.104 31.88 201.905 31.0963C202.706 30.309 203.106 29.3629 203.106 28.2511C203.106 27.4639 202.771 26.573 202.101 25.5752C201.432 24.5807 200.213 23.0684 198.448 21.0416C196.715 22.8716 195.507 24.2769 194.819 25.2575C194.132 26.2381 193.787 27.236 193.787 28.2511ZM225.032 38.6959C221.6 38.6959 219.072 37.7015 217.453 35.7058C215.837 33.7101 215.025 31.0306 215.025 27.6607V5.93197H221.254V27.6607C221.254 28.9037 221.33 29.7876 221.475 30.309C221.624 30.8338 221.952 31.186 222.456 31.3656C222.963 31.5451 223.823 31.6349 225.032 31.6349H226.306H226.8H235.97C236.82 31.6349 237.476 31.4726 237.932 31.1446C238.391 30.8166 238.619 30.3746 238.619 29.8187C238.619 29.2317 238.291 28.5273 237.638 27.7125L230.132 18.9319L231.654 11.0353L247.399 4.0709L249.899 10.4932L236.903 16.2836L242.248 22.9545C244.375 25.6339 245.894 27.4915 246.809 28.5204C247.724 29.5494 248.625 30.3263 249.505 30.8511C250.376 31.3656 251.373 31.628 252.496 31.6349H252.547H253.383H255.883C257.029 31.6349 257.854 31.3967 258.362 30.9236C258.866 30.4506 259.122 29.6875 259.122 28.6413V22.2673H265.351V28.7898C265.351 29.7704 265.62 30.4886 266.158 30.9478C266.697 31.407 267.443 31.6349 268.389 31.6349C270.516 31.6349 271.579 30.606 271.579 28.5446V22.2673H277.808L277.76 28.7898C277.76 30.6854 278.741 31.6349 280.702 31.6349C281.717 31.6349 282.525 31.3552 283.129 30.7993C283.733 30.2434 283.972 29.5079 283.84 28.5929C283.385 25.6166 282.908 22.9372 282.418 20.5513L288.305 19.0769C289.417 23.8833 289.973 27.3016 289.973 29.3284C289.973 30.965 289.645 32.4912 288.992 33.9138C288.336 35.3363 287.324 36.4896 285.95 37.3735C284.576 38.2574 282.825 38.6959 280.702 38.6959C279.459 38.6959 278.316 38.4439 277.27 37.9363C276.224 37.4288 275.34 36.752 274.618 35.9026C273.869 36.752 272.943 37.4288 271.849 37.9363C270.754 38.4439 269.535 38.6959 268.196 38.6959C267.084 38.6959 265.913 38.4197 264.688 37.8638C263.462 37.3079 262.571 36.6519 262.015 35.9026C261.425 36.7209 260.568 37.3908 259.439 37.9122C258.31 38.437 257.043 38.6959 255.638 38.6959H253.383H252.547H252.302C250.704 38.6649 249.288 38.3299 248.059 37.6912C246.767 37.0213 245.355 35.8853 243.819 34.2832C243.132 35.6574 242.109 36.7347 240.753 37.522C239.396 38.3058 237.752 38.6959 235.822 38.6959H226.8H226.306H225.032ZM232.438 5.34499L244.699 0L245.583 2.35138L232.145 8.19013L232.438 5.34499ZM267.263 10.5933H273.147V16.4286H267.263V10.5933ZM272.07 3.5288H277.612V9.1224H272.07V3.5288ZM276.583 10.5933H282.418V16.4286H276.583V10.5933ZM296.25 5.93197H302.479V38.6959H296.25V5.93197ZM39.604 99.7974C36.897 99.7974 34.8391 99.0101 33.4373 97.4356C32.0354 95.8611 31.3172 93.5615 31.2862 90.5334V74.3707H37.7153V90.5334C37.7153 93.3406 38.9445 94.7424 41.403 94.7424C43.7958 94.7424 45.4186 93.8757 46.268 92.1424V74.3707H52.6972V99.3243H46.6962L46.5546 96.7278C44.8834 98.7753 42.5666 99.7974 39.604 99.7974ZM67.3476 99.7974C65.3967 99.7974 63.5978 99.4348 61.9612 98.7132C60.3211 97.9881 59.0228 96.9867 58.0629 95.7092C57.0996 94.4351 56.6196 93.0091 56.6196 91.4346H62.669C62.7001 92.6949 63.1489 93.6548 64.0156 94.3177C64.8823 94.9772 66.0251 95.3087 67.4443 95.3087C68.7356 95.3087 69.7369 95.0497 70.4448 94.5283C71.1526 94.0104 71.5082 93.3233 71.5082 92.4739C71.5082 91.59 71.0905 90.8959 70.2549 90.3918C69.4193 89.8877 68.0727 89.4319 66.215 89.0245C63.2836 88.3926 61.0876 87.4638 59.6201 86.2346C58.1561 85.0054 57.4241 83.4447 57.4241 81.556C57.4241 80.1058 57.8419 78.7972 58.6775 77.6336C59.5096 76.4665 60.6767 75.5515 62.1718 74.892C63.6703 74.2291 65.3795 73.8976 67.3027 73.8976C69.3502 73.8976 71.1526 74.236 72.7133 74.9162C74.274 75.593 75.4859 76.5287 76.3526 77.7268C77.2192 78.925 77.6508 80.3095 77.6508 81.8875H71.27C71.27 80.8137 70.9075 79.9573 70.1858 79.3117C69.4607 78.666 68.4836 78.3414 67.2544 78.3414C66.1529 78.3414 65.2517 78.6176 64.5611 79.1667C63.8671 79.7191 63.5218 80.42 63.5218 81.2729C63.5218 82.1844 63.9845 82.8646 64.9133 83.3032C65.8456 83.7451 67.1577 84.1698 68.8599 84.5807C69.7438 84.7706 70.3585 84.926 70.7037 85.0537C73.0689 85.7132 74.823 86.6213 75.9728 87.7711C77.1226 88.9209 77.6992 90.4091 77.6992 92.2356C77.6992 93.7169 77.2572 95.0324 76.3768 96.1822C75.4928 97.332 74.274 98.2229 72.7133 98.8547C71.1526 99.4831 69.364 99.7974 67.3476 99.7974ZM90.5541 99.7974C85.8582 99.7974 83.5138 97.3735 83.5138 92.5188V78.9077H79.7778V74.3707H83.5138V68.2281H89.8912V74.3707H94.2417V78.9077H89.8912V91.9525C89.8912 92.9297 90.0811 93.6306 90.4609 94.0553C90.8372 94.48 91.514 94.6941 92.4911 94.6941C92.9331 94.6941 93.596 94.6319 94.4765 94.5042V99.2311C93.2162 99.6109 91.9111 99.7974 90.5541 99.7974ZM108.184 99.7974C105.885 99.7974 103.851 99.2932 102.087 98.285C100.322 97.2768 98.9445 95.8508 97.9501 94.0104C96.9591 92.1666 96.4308 89.9982 96.3687 87.5122V86.611C96.3031 84.2803 96.7312 82.1534 97.6428 80.2336C98.5578 78.3103 99.9044 76.7738 101.686 75.624C103.464 74.4742 105.615 73.8976 108.136 73.8976C110.498 73.8976 112.569 74.4259 114.351 75.4825C116.133 76.539 117.503 78.0341 118.463 79.9712C119.423 81.9082 119.903 84.1871 119.903 86.8009V87.084C119.903 89.6356 119.416 91.8731 118.439 93.7963C117.462 95.7195 116.091 97.2008 114.327 98.2401C112.562 99.2794 110.515 99.7974 108.184 99.7974ZM102.75 87.084C102.75 89.5735 103.219 91.4795 104.165 92.8019C105.111 94.1278 106.451 94.7873 108.184 94.7873C109.887 94.7873 111.199 94.1416 112.131 92.8502C113.06 91.5589 113.54 89.7013 113.571 87.2739V86.611C113.571 84.1871 113.098 82.2949 112.155 80.9414C111.209 79.5844 109.869 78.9077 108.136 78.9077C106.496 78.9077 105.215 79.5223 104.286 80.7515C103.354 81.9807 102.843 83.7624 102.75 86.093V87.084ZM124.112 74.3707H130.113L130.348 77.2089C132.081 75.0025 134.491 73.8976 137.582 73.8976C140.858 73.8976 143.079 75.189 144.246 77.7752C146.041 75.189 148.576 73.8976 151.852 73.8976C154.47 73.8976 156.445 74.6469 157.784 76.142C159.124 77.6405 159.811 79.8848 159.842 82.8785V99.3243H153.461V83.3032C153.461 81.7908 153.168 80.6894 152.588 79.9953C152.004 79.3013 150.989 78.956 149.539 78.956C148.5 78.956 147.633 79.2081 146.939 79.7122C146.055 80.2785 145.458 81.1313 145.143 82.2638L145.188 82.5953V99.3243H138.811V83.3515C138.811 81.8391 138.504 80.7273 137.889 80.0195C137.274 79.3117 136.256 78.956 134.84 78.956C133.863 78.956 133.014 79.1597 132.289 79.5706C131.532 80.0747 130.932 80.7515 130.49 81.6009V99.3243H124.112V74.3707ZM176.478 99.7974C174.051 99.7974 171.91 99.2863 170.049 98.2608C168.191 97.2388 166.748 95.7955 165.726 93.9379C164.7 92.0803 164.189 89.9222 164.189 87.4638V86.8009C164.189 84.3425 164.655 82.1395 165.584 80.1852C166.513 78.2309 167.853 76.6944 169.6 75.5757C171.35 74.457 173.405 73.8976 175.77 73.8976C179.171 73.8976 181.844 74.9853 183.781 77.1606C185.718 79.3324 186.685 82.3743 186.685 86.283V88.8346H170.663V88.9278C170.853 90.6922 171.506 92.1113 172.625 93.1817C173.743 94.2521 175.169 94.7873 176.903 94.7873C179.454 94.7873 181.488 93.8274 183 91.9042L186.167 95.2154C185.158 96.6622 183.812 97.7913 182.127 98.5923C180.438 99.3968 178.557 99.7974 176.478 99.7974ZM180.4 84.4875V84.0144C180.338 82.3743 179.903 81.114 179.102 80.2336C178.298 79.3496 177.172 78.9077 175.722 78.9077C174.368 78.9077 173.25 79.3876 172.366 80.351C171.482 81.3109 170.933 82.6885 170.712 84.4875H180.4ZM190.514 74.3707H196.611L196.753 77.4437C198.141 75.0819 200.03 73.8976 202.426 73.8976C203.244 73.8976 203.938 73.9943 204.505 74.1808L204.408 80.1369C203.969 80.0126 203.182 79.947 202.046 79.947C199.463 79.947 197.761 80.8931 196.943 82.7852V99.3243H190.514V74.3707ZM227.097 99.7974C223.537 99.7974 220.729 98.6579 218.682 96.3721C216.634 94.0864 215.612 90.9615 215.612 86.9908V86.4694C215.612 84.0455 216.051 81.8875 216.935 79.9953C217.815 78.1066 219.117 76.615 220.833 75.5308C222.549 74.4432 224.621 73.8976 227.048 73.8976C230.135 73.8976 232.618 74.7746 234.493 76.5218C236.367 78.2689 237.338 80.6099 237.4 83.5414H231.395C231.364 82.1223 230.94 80.9967 230.121 80.1611C229.303 79.3255 228.246 78.9077 226.955 78.9077C223.678 78.9077 222.024 81.4283 221.993 86.4694V87.2256C221.959 89.8117 222.363 91.7177 223.198 92.9469C224.03 94.1761 225.301 94.7873 227 94.7873C228.264 94.7873 229.303 94.4178 230.121 93.6789C230.94 92.9366 231.364 91.9836 231.395 90.82H237.4C237.369 92.4566 236.91 93.9621 236.029 95.3328C235.145 96.7036 233.926 97.7913 232.366 98.5923C230.805 99.3968 229.051 99.7974 227.097 99.7974ZM241.654 63.8809H248.079V99.3243H241.654V63.8809ZM261.836 99.7974C259.125 99.7974 257.067 99.0101 255.665 97.4356C254.263 95.8611 253.549 93.5615 253.514 90.5334V74.3707H259.943V90.5334C259.943 93.3406 261.173 94.7424 263.631 94.7424C266.024 94.7424 267.647 93.8757 268.499 92.1424V74.3707H274.925V99.3243H268.924L268.783 96.7278C267.111 98.7753 264.795 99.7974 261.836 99.7974ZM292.79 99.7974C289.986 99.7974 287.78 98.7442 286.175 96.6311L285.843 99.3243H280.077V63.8809H286.506V76.6392C288.049 74.8126 290.111 73.8976 292.697 73.8976C295.753 73.8976 298.146 75.0267 299.879 77.2779C301.612 79.5292 302.479 82.6747 302.479 86.7076V87.084C302.479 91.0548 301.612 94.1658 299.879 96.4205C298.146 98.6717 295.784 99.7974 292.79 99.7974ZM286.506 92.0009C287.387 93.8274 288.93 94.7424 291.136 94.7424C292.87 94.7424 294.123 94.0726 294.893 92.7329C295.666 91.3931 296.053 89.3387 296.053 86.5661C296.053 81.4939 294.399 78.956 291.088 78.956C290.111 78.956 289.213 79.2012 288.395 79.688C287.576 80.1783 286.945 80.8447 286.506 81.6976V92.0009Z" fill="white"/>
</svg>
