<svg width="514" height="68" viewBox="0 0 514 68" fill="none" xmlns="http://www.w3.org/2000/svg">
<path d="M0 0H513.01V67.3407H0V0Z" fill="#FF9308"/>
<path d="M1 10.2433H25.4476V15.9416H8.20064V25.3698H23.0129V30.9127H8.20064V41.377H25.4994V47.0719H1V10.2433ZM346.769 46.9855C344.628 46.9855 342.752 46.509 341.147 45.5592C339.541 44.6095 338.315 43.3317 337.472 41.7258C336.622 40.1199 336.201 38.3862 336.201 36.5213C336.201 35.6925 336.27 34.9499 336.408 34.2938C336.581 33.3268 336.812 32.1698 337.109 30.823C337.399 29.4761 337.669 28.3019 337.911 27.3003L343.972 28.8026L343.609 30.4603C342.918 33.1541 342.573 35.019 342.573 36.0551C342.573 37.1257 342.935 37.9718 343.661 38.5934C344.386 39.2151 345.422 39.5259 346.769 39.5259H369.044C370.46 39.5259 371.496 39.222 372.153 38.6176C372.809 38.0132 373.137 37.212 373.137 36.2105C373.137 34.8636 372.688 31.9454 371.79 27.4557L378.006 25.9017C379.142 30.7366 379.712 34.311 379.712 36.6249C379.712 38.3517 379.325 40.0094 378.548 41.598C377.771 43.1866 376.621 44.4817 375.105 45.4833C373.586 46.4848 371.738 46.9855 369.562 46.9855H346.769ZM350.136 22.12H356.301V28.2846H350.136V22.12ZM359.823 22.12H366.04V28.2846H359.823V22.12ZM396.289 46.9855C392.663 46.9855 389.997 45.9322 388.287 43.8255C386.578 41.7189 385.721 38.887 385.721 35.3298V12.381H392.3V35.3298C392.3 36.6422 392.38 37.5746 392.535 38.1272C392.691 38.6798 393.036 39.0493 393.571 39.2392C394.107 39.4292 395.011 39.5259 396.289 39.5259H397.636H398.154H407.893H408.463H418.15H418.72H428.407H428.977H438.664H439.234H448.921H449.491H459.178H459.748H469.432H470.002H479.637C480.535 39.5259 481.219 39.3532 481.685 39.0079C482.151 38.6625 482.383 38.1963 482.383 37.6092C482.383 36.9185 482.055 36.1759 481.398 35.3816L472.592 25.021L474.198 16.6807L491.552 9.01381L494.246 15.8518L479.741 22.2236L486.268 30.3567C486.337 30.4258 486.372 30.4603 486.372 30.4603C488.547 33.2232 490.119 35.1468 491.086 36.2347C492.053 37.3225 493.002 38.1445 493.935 38.697C494.867 39.2496 495.938 39.5259 497.147 39.5259H497.457H498.027H503.208C504.762 39.5259 505.867 39.2565 506.523 38.7212C507.179 38.1859 507.473 37.4192 507.404 36.4177C507.231 34.2765 506.782 31.4101 506.057 27.8184L512.273 26.2643C512.688 28.0947 513.078 30.0459 513.44 32.118C513.803 34.1902 513.983 35.8651 513.983 37.1429C513.983 38.8697 513.603 40.4756 512.843 41.9606C512.083 43.4457 510.933 44.6544 509.4 45.5869C507.863 46.5193 505.97 46.9855 503.726 46.9855H498.027H497.457H497.147C495.351 46.9855 493.773 46.6298 492.408 45.9219C491.044 45.2139 489.549 44.0155 487.926 42.3233C487.2 43.7737 486.123 44.9134 484.69 45.7423C483.256 46.5711 481.519 46.9855 479.482 46.9855H470.002H469.432H459.748H459.178H449.491H448.921H439.234H438.664H428.977H428.407H418.72H418.15H408.463H407.893H398.154H397.636H396.289ZM494.556 53.3055H500.721V59.5219H494.556V53.3055ZM504.244 53.3055H510.46V59.5219H504.244V53.3055ZM40.5742 47.5899C36.6717 47.5899 33.598 46.3397 31.3532 43.8359C29.1084 41.3321 27.986 37.9062 27.986 33.5547V32.9849C27.986 30.3256 28.4695 27.96 29.4365 25.8878C30.4035 23.8157 31.8298 22.1822 33.712 20.9907C35.5942 19.7992 37.8631 19.2052 40.5224 19.2052C43.9068 19.2052 46.6282 20.1619 48.6831 22.0786C50.738 23.9953 51.7982 26.5613 51.8673 29.7731H45.2883C45.2537 28.219 44.7875 26.9826 43.8896 26.0674C42.9917 25.1522 41.8347 24.6964 40.4188 24.6964C36.8271 24.6964 35.014 27.4592 34.9794 32.9849V33.8137C34.9449 36.6456 35.3869 38.735 36.3021 40.0819C37.2173 41.4288 38.6057 42.0988 40.4706 42.0988C41.852 42.0988 42.9917 41.6947 43.8896 40.8831C44.7875 40.0715 45.2537 39.0286 45.2883 37.7508H51.8673C51.8327 39.5466 51.332 41.1939 50.365 42.6962C49.398 44.1985 48.0615 45.39 46.3519 46.2707C44.6424 47.1513 42.7154 47.5899 40.5742 47.5899ZM65.0771 47.5899C62.107 47.5899 59.8519 46.7265 58.3185 44.9998C56.7817 43.2764 55.9942 40.7553 55.9597 37.4399V19.7233H63.0049V37.4399C63.0049 40.5101 64.3518 42.047 67.0456 42.047C69.6703 42.047 71.4489 41.1007 72.3813 39.2013V19.7233H79.4266V47.0719H72.8475L72.6921 44.2227C70.8618 46.4675 68.3234 47.5899 65.0771 47.5899ZM94.2941 47.5899C89.1483 47.5899 86.5754 44.9341 86.5754 39.6157V24.6964H82.4829V19.7233H86.5754V12.9888H93.5688V19.7233H98.3347V24.6964H93.5688V38.994C93.5688 40.0646 93.776 40.8313 94.1905 41.2976C94.6049 41.7638 95.3474 41.9952 96.418 41.9952C96.9015 41.9952 97.6267 41.9296 98.5937 41.788V46.9683C97.2123 47.3827 95.7791 47.5899 94.2941 47.5899ZM112.37 19.7233H118.949L119.208 22.8314C121.107 20.414 123.749 19.2052 127.134 19.2052C130.726 19.2052 133.16 20.6212 134.438 23.4531C136.407 20.6212 139.187 19.2052 142.778 19.2052C145.645 19.2052 147.81 20.0237 149.281 21.6641C150.746 23.3046 151.499 25.767 151.533 29.0478V47.0719H144.54V29.5141C144.54 27.8564 144.222 26.6476 143.583 25.8878C142.944 25.1281 141.829 24.7482 140.24 24.7482C139.1 24.7482 138.151 25.0245 137.391 25.577C136.424 26.1987 135.768 27.1311 135.422 28.3744L135.474 28.737V47.0719H128.481V29.5659C128.481 27.9082 128.146 26.6891 127.472 25.912C126.799 25.135 125.683 24.7482 124.129 24.7482C123.059 24.7482 122.126 24.9726 121.332 25.4216C120.503 25.9742 119.847 26.7167 119.363 27.6491V47.0719H112.37V19.7233ZM169.768 47.5899C167.109 47.5899 164.76 47.0304 162.723 45.908C160.685 44.7856 159.103 43.2039 157.981 41.1698C156.858 39.1322 156.299 36.7665 156.299 34.0727V33.3475C156.299 30.6537 156.807 28.2362 157.825 26.095C158.844 23.9539 160.312 22.2685 162.229 21.0425C164.145 19.8165 166.401 19.2052 168.991 19.2052C172.721 19.2052 175.646 20.3967 177.77 22.7796C179.894 25.1626 180.957 28.4953 180.957 32.7777V35.575H163.396V35.6786C163.603 37.6126 164.318 39.1633 165.544 40.3409C166.77 41.5151 168.335 42.0988 170.234 42.0988C173.031 42.0988 175.259 41.0489 176.917 38.9422L180.388 42.565C179.282 44.1571 177.804 45.39 175.957 46.2707C174.109 47.1513 172.047 47.5899 169.768 47.5899ZM174.068 30.8091V30.2911C173.998 28.4953 173.522 27.1138 172.641 26.1469C171.761 25.1799 170.528 24.6964 168.939 24.6964C167.454 24.6964 166.228 25.2213 165.261 26.2746C164.294 27.328 163.69 28.8406 163.448 30.8091H174.068ZM193.338 47.5899C191.612 47.5899 190.04 47.2377 188.624 46.5297C187.208 45.8217 186.093 44.8374 185.281 43.5769C184.47 42.3164 184.066 40.9246 184.066 39.4085C184.066 36.5075 185.16 34.28 187.353 32.7259C189.546 31.1718 192.679 30.3947 196.754 30.3947H200.173V28.6852C200.173 27.2693 199.81 26.1814 199.085 25.4216C198.36 24.6618 197.289 24.2819 195.873 24.2819C194.595 24.2819 193.58 24.5997 192.82 25.2386C192.057 25.8775 191.681 26.734 191.681 27.8046H184.739C184.739 26.2159 185.229 24.7654 186.214 23.4531C187.198 22.1407 188.562 21.1047 190.306 20.3449C192.05 19.5851 194.026 19.2052 196.236 19.2052C199.586 19.2052 202.228 20.0237 204.162 21.6641C206.096 23.3046 207.097 25.577 207.166 28.478V40.7553C207.166 43.2384 207.512 45.207 208.202 46.6575V47.0719H201.157C200.881 46.4502 200.639 45.5696 200.432 44.4299C198.636 46.5366 196.274 47.5899 193.338 47.5899ZM191.111 38.8904C191.111 39.9265 191.456 40.7553 192.147 41.377C192.834 41.9952 193.753 42.306 194.889 42.306C196.029 42.306 197.082 42.0228 198.049 41.453C199.016 40.8831 199.724 40.1855 200.173 39.3567V34.4872H197.22C193.145 34.4872 191.111 35.9549 191.111 38.8904ZM212.813 19.7233H219.392L219.651 23.0387C221.585 20.483 224.227 19.2052 227.577 19.2052C233.275 19.2052 236.159 22.5552 236.228 29.255V47.0719H229.234V29.4623C229.2 27.8046 228.848 26.6027 228.174 25.8602C227.501 25.1177 226.351 24.7482 224.728 24.7482C223.622 24.7482 222.649 25.0072 221.802 25.5252C220.956 26.0432 220.29 26.7685 219.806 27.7009V47.0719H212.813V19.7233ZM242.289 19.7233H249.334V47.0719H242.289V19.7233ZM241.874 12.5744C241.874 11.5384 242.227 10.6819 242.938 10.0084C243.643 9.33499 244.603 9 245.811 9C246.986 9 247.935 9.33499 248.661 10.0084C249.386 10.6819 249.748 11.5384 249.748 12.5744C249.748 13.6105 249.386 14.4635 248.661 15.137C247.935 15.8104 246.986 16.1488 245.811 16.1488C244.603 16.1488 243.643 15.8104 242.938 15.137C242.227 14.4635 241.874 13.6105 241.874 12.5744ZM255.343 19.7233H261.922L262.181 23.0387C264.115 20.483 266.757 19.2052 270.107 19.2052C275.805 19.2052 278.689 22.5552 278.758 29.255V47.0719H271.765V29.4623C271.73 27.8046 271.375 26.6027 270.701 25.8602C270.028 25.1177 268.881 24.7482 267.258 24.7482C266.153 24.7482 265.175 25.0072 264.329 25.5252C263.483 26.0432 262.82 26.7685 262.337 27.7009V47.0719H255.343V19.7233ZM295.176 57.8469C293.173 57.8469 291.232 57.4498 289.35 56.6555C287.468 55.8612 286.025 54.8078 285.023 53.4955L288.183 49.3512C289.875 51.4579 292.103 52.5112 294.866 52.5112C296.903 52.5112 298.457 51.969 299.528 50.8811C300.598 49.7933 301.134 48.2116 301.134 46.1394V44.6889C299.407 46.6229 297.145 47.5899 294.348 47.5899C292.172 47.5899 290.255 47.0028 288.597 45.8286C286.94 44.6544 285.655 42.9967 284.74 40.859C283.825 38.7178 283.369 36.2139 283.369 33.3475V33.0367C283.369 30.2393 283.832 27.7942 284.764 25.7048C285.696 23.6154 286.992 22.0095 288.649 20.8871C290.307 19.7647 292.224 19.2052 294.399 19.2052C297.473 19.2052 299.856 20.2586 301.548 22.3652L301.807 19.7233H308.179V46.1912C308.179 47.8144 307.782 49.517 306.988 51.2956C306.193 53.0741 304.829 54.611 302.895 55.9061C300.961 57.2011 298.388 57.8469 295.176 57.8469ZM290.359 33.7101C290.359 36.3003 290.87 38.3344 291.889 39.8229C292.907 41.3079 294.33 42.047 296.161 42.047C298.44 42.047 300.098 41.1318 301.134 39.3049V27.4419C300.063 25.6461 298.423 24.7482 296.212 24.7482C294.348 24.7482 292.907 25.5079 291.889 27.0275C290.87 28.5471 290.359 30.7746 290.359 33.7101Z" fill="white"/>
</svg>
