<svg width="399" height="68" viewBox="0 0 399 68" fill="none" xmlns="http://www.w3.org/2000/svg">
<g clip-path="url(#clip0_18_12)">
<path d="M0 0H398.223V67.7892H0V0Z" fill="#FF9308"/>
<g clip-path="url(#clip1_18_12)">
<path d="M0 19.1118H7.30149V56.186H0V19.1118ZM363.079 29.4939V37.0561C363.079 37.9601 363.312 38.586 363.781 38.9336C364.251 39.2813 365.009 39.4552 366.052 39.4552H366.521H367.043H368.92C371.733 39.4552 374.132 39.2639 376.114 38.8815L373.976 35.9087C372.376 33.614 371.124 31.8755 370.224 30.6934L374.028 23.5484H388.266C389.688 23.5484 390.922 23.8717 391.965 24.5149C393.008 25.1582 393.818 26.01 394.392 27.0705C394.966 28.1309 395.251 29.2852 395.251 30.5369C395.251 32.6926 394.486 34.6049 392.956 36.2738L389.935 39.1944C390.908 39.3683 392.174 39.4552 393.738 39.4552H398.223V46.9618H391.131C389.5 46.9618 388.047 46.7358 386.777 46.2838C385.508 45.8318 384.215 45.1538 382.894 44.2498C379.591 46.0578 375.818 46.9618 371.576 46.9618H367.043H366.521H366.052C364.904 46.9618 363.896 46.6837 363.027 46.1273C362.679 50.5778 361.219 54.0199 358.646 56.4537C356.073 58.8876 352.527 60.1045 348.01 60.1045H344.724V52.5944H348.01C350.2 52.5944 351.894 52.3406 353.093 51.8364C354.293 51.3323 355.145 50.4839 355.649 49.2844C356.153 48.0848 356.403 46.3881 356.403 44.1977V29.4939H363.079ZM380.39 34.0834L383.207 37.9427C384.563 36.5867 385.71 35.3698 386.649 34.292L388.213 32.6231C388.561 32.2754 388.735 31.9103 388.735 31.5278C388.735 31.1454 388.585 30.8325 388.29 30.5891C387.994 30.3457 387.588 30.224 387.066 30.224H377.574L380.39 34.0834ZM301.84 33.8226C299.963 38.0644 299.024 41.5552 299.024 44.302C299.024 47.0835 299.667 49.1627 300.954 50.5361C302.24 51.906 304.361 52.5944 307.316 52.5944H311.798C316.84 52.5944 319.36 51.6556 319.36 49.7781C319.36 48.9089 318.7 48.283 317.379 47.9006C315.571 47.3443 313.085 47.0313 309.921 46.9618V39.4552H326.662H327.18H335.212C337.02 39.4552 338.417 39.3856 339.408 39.2466C340.399 39.1075 341.157 38.8467 341.679 38.4643L338.341 37.9427C335.351 37.3864 333.101 36.3086 331.589 34.7092C330.076 33.1098 329.318 30.7455 329.318 27.6163C329.318 25.4259 329.763 23.4892 330.65 21.8029C331.536 20.1166 332.736 18.8232 334.248 17.9192C335.761 17.0153 337.437 16.5633 339.28 16.5633C341.261 16.5633 343.007 17.0153 344.519 17.9192C346.032 18.8232 347.203 20.1097 348.038 21.7751C348.872 23.444 349.29 25.3911 349.29 27.6163V31.7365C349.29 36.326 348.212 40.0115 346.06 42.7895C343.904 45.571 340.288 46.9618 335.212 46.9618H327.18H326.662H325.097C325.619 47.7267 325.88 48.735 325.88 49.9867C325.845 51.7599 325.226 53.4184 324.026 54.9656C322.827 56.5129 321.168 57.7576 319.047 58.6964C316.927 59.6351 314.51 60.1045 311.798 60.1045H307.316C304.257 60.1045 301.604 59.4091 299.361 58.0184C297.122 56.6276 295.418 54.7396 294.254 52.358C293.089 49.9798 292.505 47.3269 292.505 44.4063C292.505 42.3897 292.863 40.1679 293.576 37.7341C294.288 35.3003 295.147 33.0055 296.156 30.8498L301.84 33.8226ZM335.629 27.5642C335.629 28.4334 335.89 29.1392 336.411 29.6781C336.933 30.217 337.802 30.6238 339.019 30.902L343.035 31.9451V27.5642C343.035 26.382 342.729 25.4085 342.12 24.6436C341.512 23.8787 340.583 23.4962 339.332 23.4962C338.115 23.4962 337.193 23.8787 336.568 24.6436C335.942 25.4085 335.629 26.382 335.629 27.5642ZM335.89 6.81055H342.826V13.5905H335.89V6.81055ZM13.9771 28.6559H20.5972L20.8579 31.9937C22.805 29.4208 25.4648 28.1344 28.8374 28.1344C34.5743 28.1344 37.474 31.507 37.5436 38.2487V56.186H30.5063V38.4573C30.4716 36.7884 30.1134 35.5819 29.4355 34.8344C28.7575 34.0868 27.6031 33.7148 25.969 33.7148C24.8564 33.7148 23.8759 33.9756 23.024 34.4971C22.1722 35.0186 21.5012 35.7453 21.0144 36.6841V56.186H13.9771V28.6559ZM52.5116 56.7076C47.3311 56.7076 44.7408 54.0338 44.7408 48.6794V33.6627H40.6206V28.6559H44.7408V21.876H51.7815V28.6559H56.5761V33.6627H51.7815V48.0536C51.7815 49.1314 51.9901 49.9033 52.4073 50.3726C52.8246 50.842 53.5721 51.0785 54.6499 51.0785C55.1332 51.0785 55.8634 51.0089 56.8369 50.8698V56.0817C55.4462 56.4989 54.0067 56.7076 52.5116 56.7076ZM60.8006 28.6559H67.5284L67.6848 32.0459C69.2147 29.4382 71.3008 28.1344 73.9433 28.1344C74.8438 28.1344 75.6087 28.2387 76.2345 28.4473L76.1302 35.0186C75.6435 34.8761 74.7742 34.81 73.526 34.81C70.675 34.81 68.7975 35.8496 67.8935 37.9358V56.186H60.8006V28.6559ZM90.7854 56.7076C88.2472 56.7076 86.0046 56.1513 84.0576 55.0386C82.1105 53.9295 80.5911 52.3545 79.4959 50.3205C78.4007 48.2865 77.8165 45.8979 77.747 43.1511V42.1602C77.6775 39.5873 78.1468 37.2404 79.1551 35.1195C80.1634 33.002 81.6516 31.3053 83.616 30.0363C85.577 28.7672 87.9517 28.1344 90.7332 28.1344C93.3409 28.1344 95.6252 28.715 97.5897 29.8798C99.5541 31.0445 101.067 32.6961 102.127 34.8344C103.187 36.9727 103.716 39.483 103.716 42.3688V42.6817C103.716 45.498 103.177 47.9666 102.099 50.0875C101.021 52.2085 99.5089 53.8426 97.5619 54.9865C95.6148 56.1339 93.3548 56.7076 90.7854 56.7076ZM84.7877 42.6817C84.7877 45.4285 85.3093 47.532 86.3523 48.9923C87.3954 50.4526 88.8731 51.1828 90.7854 51.1828C92.6629 51.1828 94.1128 50.47 95.1385 49.0445C96.1641 47.6189 96.6926 45.5676 96.7274 42.8904V42.1602C96.7274 39.483 96.2059 37.3969 95.1628 35.9018C94.1197 34.4067 92.6455 33.6627 90.7332 33.6627C88.9252 33.6627 87.5067 34.3407 86.481 35.6932C85.4553 37.0492 84.892 39.0136 84.7877 41.5865V42.6817ZM118.003 56.7076C115.847 56.7076 113.952 56.1269 112.321 54.9622C110.687 53.7974 109.425 52.1215 108.538 49.9311C107.652 47.7406 107.21 45.1677 107.21 42.2124C107.21 39.3613 107.652 36.8753 108.538 34.7579C109.425 32.637 110.687 31.0028 112.321 29.8554C113.952 28.7081 115.864 28.1344 118.055 28.1344C120.801 28.1344 123.061 29.1601 124.835 31.2114V17.0778H131.875V56.186H125.513L125.148 53.2168C123.374 55.5428 120.993 56.7076 118.003 56.7076ZM114.3 42.7339C114.3 45.4459 114.769 47.5216 115.708 48.9645C116.647 50.4074 118.003 51.1306 119.776 51.1306C122.105 51.1306 123.792 50.1223 124.835 48.1057V36.7362C123.792 34.7196 122.123 33.7148 119.828 33.7148C118.124 33.7148 116.779 34.3824 115.788 35.721C114.797 37.0596 114.3 38.9788 114.3 41.4822V42.7339ZM146.736 56.7076C143.746 56.7076 141.479 55.8383 139.931 54.1034C138.384 52.3649 137.591 49.8268 137.557 46.4889V28.6559H144.65V46.4889C144.65 49.5834 146.006 51.1306 148.718 51.1306C151.36 51.1306 153.147 50.1745 154.086 48.2622V28.6559H161.179V56.186H154.555L154.399 53.3211C152.559 55.5776 150.004 56.7076 146.736 56.7076ZM178.386 56.7076C174.457 56.7076 171.363 55.4489 169.106 52.9282C166.846 50.4074 165.716 46.9583 165.716 42.5774V42.0037C165.716 39.3265 166.203 36.9449 167.176 34.8622C168.15 32.776 169.582 31.1315 171.477 29.9319C173.372 28.7324 175.657 28.1344 178.334 28.1344C181.741 28.1344 184.477 29.0975 186.546 31.0272C188.615 32.9568 189.686 35.5367 189.755 38.7702H183.132C183.097 37.2056 182.628 35.9644 181.724 35.043C180.82 34.1216 179.655 33.6627 178.229 33.6627C174.613 33.6627 172.788 36.4407 172.753 42.0037V42.8382C172.719 45.6893 173.164 47.7928 174.085 49.1488C175.006 50.5048 176.404 51.1828 178.282 51.1828C179.672 51.1828 180.82 50.7725 181.724 49.9554C182.628 49.1383 183.097 48.0883 183.132 46.8019H189.755C189.721 48.6099 189.216 50.2683 188.243 51.7808C187.269 53.2932 185.92 54.4928 184.199 55.3794C182.478 56.266 180.542 56.7076 178.386 56.7076ZM203.312 56.7076C198.131 56.7076 195.541 54.0338 195.541 48.6794V33.6627H191.421V28.6559H195.541V21.876H202.582V28.6559H207.38V33.6627H202.582V48.0536C202.582 49.1314 202.79 49.9033 203.208 50.3726C203.625 50.842 204.372 51.0785 205.45 51.0785C205.937 51.0785 206.667 51.0089 207.641 50.8698V56.0817C206.25 56.4989 204.807 56.7076 203.312 56.7076ZM212.018 28.6559H219.111V56.186H212.018V28.6559ZM211.601 21.4587C211.601 20.4157 211.959 19.5569 212.672 18.8789C213.384 18.2009 214.348 17.8601 215.564 17.8601C216.747 17.8601 217.703 18.2009 218.433 18.8789C219.163 19.5569 219.528 20.4157 219.528 21.4587C219.528 22.5018 219.163 23.3641 218.433 24.0421C217.703 24.7166 216.747 25.0573 215.564 25.0573C214.348 25.0573 213.384 24.7166 212.672 24.0421C211.959 23.3641 211.601 22.5018 211.601 21.4587ZM237.152 56.7076C234.614 56.7076 232.372 56.1513 230.425 55.0386C228.481 53.9295 226.958 52.3545 225.863 50.3205C224.768 48.2865 224.187 45.8979 224.118 43.1511V42.1602C224.048 39.5873 224.517 37.2404 225.526 35.1195C226.534 33.002 228.019 31.3053 229.983 30.0363C231.948 28.7672 234.319 28.1344 237.1 28.1344C239.708 28.1344 241.992 28.715 243.957 29.8798C245.921 31.0445 247.434 32.6961 248.494 34.8344C249.555 36.9727 250.083 39.483 250.083 42.3688V42.6817C250.083 45.498 249.548 47.9666 248.47 50.0875C247.392 52.2085 245.88 53.8426 243.932 54.9865C241.985 56.1339 239.725 56.7076 237.152 56.7076ZM231.155 42.6817C231.155 45.4285 231.676 47.532 232.719 48.9923C233.763 50.4526 235.24 51.1828 237.152 51.1828C239.03 51.1828 240.48 50.47 241.506 49.0445C242.531 47.6189 243.063 45.5676 243.098 42.8904V42.1602C243.098 39.483 242.576 37.3969 241.533 35.9018C240.49 34.4067 239.013 33.6627 237.1 33.6627C235.292 33.6627 233.877 34.3407 232.852 35.6932C231.826 37.0492 231.259 39.0136 231.155 41.5865V42.6817ZM254.62 28.6559H261.244L261.505 31.9937C263.452 29.4208 266.112 28.1344 269.481 28.1344C275.218 28.1344 278.121 31.507 278.19 38.2487V56.186H271.15V38.4573C271.115 36.7884 270.76 35.5819 270.082 34.8344C269.404 34.0868 268.246 33.7148 266.616 33.7148C265.503 33.7148 264.519 33.9756 263.667 34.4971C262.816 35.0186 262.148 35.7453 261.661 36.6841V56.186H254.62V28.6559Z" fill="white"/>
</g>
</g>
<defs>
<clipPath id="clip0_18_12">
<rect width="399" height="68" fill="white"/>
</clipPath>
<clipPath id="clip1_18_12">
<rect width="399" height="55" fill="white" transform="translate(0 6)"/>
</clipPath>
</defs>
</svg>
