<svg width="272" height="272" viewBox="0 0 272 272" fill="none" xmlns="http://www.w3.org/2000/svg">
<g clip-path="url(#clip0_27_50)">
<rect x="-2646" y="-1138" width="6556" height="5003" fill="white"/>
<path d="M184.9 86V86.5H185.4H202.2C204.241 86.5 205.9 88.1591 205.9 90.2C205.9 92.2414 204.247 93.9 202.2 93.9H185.4H184.9V94.4V111.2C184.9 113.241 183.241 114.9 181.2 114.9C179.159 114.9 177.5 113.247 177.5 111.2V94.4V93.9H177H160.2C158.159 93.9 156.5 92.2409 156.5 90.2C156.5 88.1586 158.153 86.5 160.2 86.5H177H177.5V86V69.2C177.5 67.1591 179.159 65.5 181.2 65.5C183.241 65.5 184.9 67.1527 184.9 69.2V86ZM184.9 139.977V174.2C184.9 191.683 170.683 205.9 153.2 205.9H97.2C79.7171 205.9 65.5 191.683 65.5 174.2V118.2C65.5 100.717 79.7171 86.5 97.2 86.5H131.423C133.47 86.5 135.123 88.1586 135.123 90.2C135.123 92.2409 133.464 93.9 131.423 93.9H97.2C83.7989 93.9 72.9 104.799 72.9 118.2V174.2C72.9 187.601 83.7989 198.5 97.2 198.5H153.2C166.601 198.5 177.5 187.601 177.5 174.2V139.977C177.5 137.93 179.159 136.277 181.2 136.277C183.241 136.277 184.9 137.936 184.9 139.977Z" fill="#CED0D0" stroke="white"/>
</g>
<defs>
<clipPath id="clip0_27_50">
<rect width="272" height="272" fill="white"/>
</clipPath>
</defs>
</svg>
