<svg xmlns="http://www.w3.org/2000/svg" width="76" height="97" viewBox="0 0 76 97" fill="none">
<path d="M33.2418 60.0874C33.2418 60.0874 33.1818 60.0802 33.0618 60.0621C32.9473 60.0458 32.7764 60.0187 32.5564 59.9843C32.1164 59.9102 31.4782 59.7944 30.6727 59.6208C29.7636 59.4237 28.64 59.1524 27.3564 58.7798C20.0509 62.8961 18.0709 60.7276 17.6873 60.6336C17.5745 60.0838 20.0855 57.9045 23.0091 57.2914C22.5927 57.1268 22.1709 56.9514 21.7418 56.7669C14.2255 61.0821 12.2018 58.863 11.8145 58.769C11.6836 58.1251 15.1364 55.255 18.6436 55.2658C18.4473 55.1591 18.2509 55.0524 18.0545 54.9421C16.3236 55.8626 10.92 57.2914 8.68 54.5659C12.1145 53.667 14.3418 53.4681 15.8 53.5567L15.5782 53.4084C15.2909 53.2113 15.0036 53.0087 14.7182 52.8007C13.3582 53.195 8.12364 54.3651 5.19091 50.0915C8.14182 49.6502 10.2345 49.8365 11.7073 50.2633C11.6018 50.1621 11.4982 50.0572 11.3945 49.9541C11.1309 49.69 10.8745 49.4187 10.6236 49.142C9.42909 49.4423 6.10909 49.9251 4.08727 46.7529C6.40727 46.4455 7.98182 46.7312 9.03818 47.1888C8.77818 46.8289 8.52909 46.4618 8.28909 46.0874C7.08 46.4111 3.34545 47.0767 1.16182 43.7797C4.47273 43.3113 6.36909 43.9135 7.42909 44.6044C7.26727 44.2969 7.11455 43.9877 6.96727 43.6748C5.75091 43.5319 1.13636 42.6855 0.274545 38.0285C3.21091 38.8061 4.91455 39.8931 5.90182 40.9077C5.85273 40.7431 5.80545 40.5803 5.76182 40.4158C5.72 40.2693 5.68182 40.1228 5.64545 39.9763C4.43273 39.62 0.08 38.0194 0 33.319C2.81091 34.585 4.31455 35.9577 5.11091 37.1314C5.02727 36.4514 4.97455 35.7768 4.94909 35.1095C3.97091 34.7984 0.349091 33.1345 1.48182 25.8262C3.68364 27.2585 4.70545 29.0743 5.14364 30.7255C5.16909 30.5194 5.19636 30.315 5.22545 30.1124C5.30909 29.5391 5.40182 28.9803 5.50546 28.4377C4.6 28.152 1.47273 26.7865 1.99636 21.643C3.06909 22.247 3.85091 22.9198 4.41818 23.6016C2.36727 19.7494 3.90909 16.0563 3.90909 16.0563C3.90909 16.0563 7.19091 19.2575 6.55636 24.2744C6.60182 24.1261 6.64545 23.9796 6.68909 23.8349C6.89091 23.2381 7.08364 22.6738 7.26545 22.1421L7.39091 21.8148C3.97818 16.9769 6.56545 12.4157 6.56545 12.4157C6.56545 12.4157 8.80909 15.3962 7.67091 21.0805L7.82545 20.6754C8.00364 20.2251 8.18182 19.8163 8.33636 19.4438C8.47455 19.1056 8.60727 18.8035 8.72727 18.5377L8.69818 18.5811C6.57273 14.1158 9.23273 10.9544 9.23273 10.9544C9.23273 10.9544 9.77818 12.0848 9.93636 13.6636C11.1636 11.2619 13.2255 10.2907 13.2255 10.2907C13.2255 10.2907 13.3018 12.3163 12.2636 14.4305C13.6727 13.6094 14.8455 13.5334 14.8455 13.5334C14.8455 13.5334 12.9382 17.9336 8.76364 18.572C8.65273 18.8379 8.53273 19.1363 8.40727 19.4727C8.26546 19.8489 8.09818 20.2612 7.93455 20.717L7.76727 21.1981C9.59273 17.6497 13.3818 17.0239 13.3818 17.0239C13.3818 17.0239 12.4782 21.8329 7.06 23.3701L6.89636 23.8964C6.74182 24.5041 6.54545 25.1335 6.4 25.8045C6.28727 26.2566 6.18545 26.7232 6.09091 27.2043C6.72909 25.8262 8.24546 24.2111 11.7764 23.3828C11.38 25.4825 10.4691 26.8787 9.46909 27.8047C9.89455 27.5967 10.3636 27.4141 10.8818 27.2658C10.4509 30.1739 9.55818 32.0313 8.61091 33.2195C9.24364 32.5287 10.0473 31.9409 11.0691 31.552C10.2655 38.9038 7.51818 40.3832 6.60182 40.6726C6.82727 41.349 7.09455 42.0163 7.39636 42.6674C7.66909 41.3779 8.47455 39.1118 10.8164 38.5602C9.94909 42.1556 8.54545 43.1756 7.78727 43.4632C8.07091 44.0148 8.38 44.5555 8.70909 45.08C9.37455 46.1145 10.1273 47.0929 10.9473 47.9954C10.3436 46.308 9.37273 42.4305 12.0255 39.9293C13.7545 45.9373 12.2091 48.0442 11.5509 48.632C11.7418 48.8274 11.9364 49.0191 12.1345 49.2053C12.6855 49.7298 13.2564 50.2254 13.8436 50.6902C13.1436 48.9612 12.1073 45.2971 14.5382 42.7361C16.4727 48.2794 15.3345 50.5473 14.6691 51.3195C15.1891 51.7011 15.72 52.0592 16.2509 52.3992C16.4673 52.5385 16.6873 52.6741 16.9055 52.8062C15.9818 51.1495 15.1927 48.4331 16.88 46.6245C19.0455 50.9397 18.7945 52.8496 18.4527 53.6851C19.0055 53.9799 19.5564 54.253 20.1018 54.5098C18.8782 52.392 17.5855 48.7116 19.3909 46.4979C22.0073 51.7391 22.0618 54.1445 21.8018 55.2604C22.6727 55.6203 23.5236 55.9368 24.3418 56.2171C22.7509 54.4682 21.0073 51.4317 22.4291 48.8436C26.2891 53.4392 26.5873 55.7867 26.4436 56.8772C28.2618 57.4035 29.8291 57.7417 31.0109 57.9605C31.7891 58.1034 32.4036 58.1975 32.82 58.2535C33.0273 58.2807 33.1855 58.3006 33.2909 58.3132C33.3945 58.3241 33.4473 58.3295 33.4473 58.3295L33.2418 60.0874ZM61.8564 96.4574L64.0745 89.3372C63.8927 89.5488 63.7309 89.7242 63.5891 89.8653C63.3582 90.0949 63.1855 90.2668 63.0727 90.3789C62.7327 90.6863 62.4018 90.9558 62.0764 91.1855H62.0182L61.9291 91.0679L61.9436 90.9793L62.9836 90.0117C63.2982 89.7043 63.5382 89.4457 63.7073 89.2341C63.76 89.1852 63.8364 89.0803 63.9346 88.9194C63.9945 88.8416 64.0564 88.7548 64.12 88.6626C64.3309 88.3461 64.5164 88.1815 64.68 88.1706L65.1291 88.12L65.2182 88.1345L65.2473 88.2159L65.2327 88.2737L65.2036 88.3624L62.8509 96.3851L62.7564 96.5967L62.5927 96.6564L61.9891 96.6998L61.8564 96.6709L61.82 96.575L61.8564 96.4574ZM57.5 97H57.4127L57.3018 96.8698L57.3382 96.7812C58.3109 95.9547 59.06 94.9907 59.5836 93.8911C60.1073 92.7915 60.3691 91.6395 60.3691 90.4368C60.3691 89.7586 60.2673 89.2323 60.0655 88.8615C59.8655 88.4998 59.5618 88.3171 59.16 88.3171C58.9182 88.3171 58.6782 88.3913 58.4364 88.5378C58.1855 88.6951 57.9655 88.9031 57.7727 89.1617C57.6491 89.3335 57.5491 89.4873 57.4709 89.6229C57.3873 89.7748 57.3109 89.9466 57.2418 90.1365C57.1291 90.4983 57.0727 90.8527 57.0727 91.2C57.0727 91.6847 57.1655 92.0464 57.3527 92.2851C57.52 92.5455 57.7709 92.6739 58.1055 92.6739C58.4891 92.6739 58.8145 92.4931 59.0855 92.1314C59.3455 91.7841 59.5382 91.2687 59.66 90.5851L59.7055 90.5398L59.8745 90.5543L59.9182 90.6285C59.7946 91.4839 59.5364 92.1802 59.1436 92.7192C58.74 93.2708 58.2855 93.5475 57.7836 93.5475C57.36 93.5475 57.0182 93.3811 56.7564 93.0483C56.48 92.73 56.3418 92.3195 56.3418 91.8167C56.3418 91.3573 56.4382 90.8925 56.6309 90.4223C56.8127 89.9539 57.0873 89.5017 57.4527 89.0659C57.5964 88.8995 57.7418 88.744 57.8891 88.5975C58.0327 88.4691 58.1855 88.3551 58.3491 88.252C58.6673 88.0856 59 88.0024 59.3436 88.0024C59.9273 88.0024 60.4164 88.2701 60.8073 88.8054C61.1982 89.3408 61.3927 89.9991 61.3927 90.7822C61.3927 91.7118 61.0418 92.7571 60.3382 93.9218C59.9855 94.4825 59.5727 95.0178 59.1 95.526C58.6273 96.0487 58.0945 96.5424 57.5 97ZM51.7745 97H51.6855L51.5764 96.8698L51.6127 96.7812C52.5855 95.9547 53.3346 94.9907 53.8564 93.8911C54.38 92.7915 54.6418 91.6395 54.6418 90.4368C54.6418 89.7586 54.5418 89.2323 54.34 88.8615C54.1382 88.4998 53.8364 88.3171 53.4346 88.3171C53.1927 88.3171 52.9527 88.3913 52.7109 88.5378C52.46 88.6951 52.2382 88.9031 52.0473 89.1617C51.9236 89.3335 51.8236 89.4873 51.7455 89.6229C51.6618 89.7748 51.5855 89.9466 51.5164 90.1365C51.4036 90.4983 51.3473 90.8527 51.3473 91.2C51.3473 91.6847 51.44 92.0464 51.6273 92.2851C51.7945 92.5455 52.0455 92.6739 52.38 92.6739C52.7618 92.6739 53.0891 92.4931 53.36 92.1314C53.62 91.7841 53.8127 91.2687 53.9346 90.5851L53.9782 90.5398L54.1491 90.5543L54.1927 90.6285C54.0691 91.4839 53.8109 92.1802 53.4164 92.7192C53.0127 93.2708 52.56 93.5475 52.0582 93.5475C51.6345 93.5475 51.2909 93.3811 51.0309 93.0483C50.7564 92.73 50.6164 92.3195 50.6164 91.8167C50.6164 91.3573 50.7127 90.8925 50.9055 90.4223C51.0873 89.9539 51.3618 89.5017 51.7273 89.0659C51.8691 88.8995 52.0145 88.744 52.1636 88.5975C52.3073 88.4691 52.46 88.3551 52.6218 88.252C52.9418 88.0856 53.2745 88.0024 53.6182 88.0024C54.2018 88.0024 54.6909 88.2701 55.0818 88.8054C55.4727 89.3408 55.6673 89.9991 55.6673 90.7822C55.6673 91.7118 55.3164 92.7571 54.6127 93.9218C54.2582 94.4825 53.8455 95.0178 53.3745 95.526C52.9018 96.0487 52.3691 96.5424 51.7745 97ZM47.0946 96.4574L49.3145 89.3372C49.1309 89.5488 48.9691 89.7242 48.8273 89.8653C48.5964 90.0949 48.4236 90.2668 48.3109 90.3789C47.9727 90.6863 47.64 90.9558 47.3164 91.1855H47.2564L47.1691 91.0679L47.1836 90.9793L48.2218 90.0117C48.5364 89.7043 48.7782 89.4457 48.9455 89.2341C49 89.1852 49.0746 89.0803 49.1727 88.9194C49.2327 88.8416 49.2945 88.7548 49.3582 88.6626C49.5691 88.3461 49.7564 88.1815 49.9182 88.1706L50.3673 88.12L50.4564 88.1345L50.4855 88.2159L50.4709 88.2737L50.4418 88.3624L48.0891 96.3851L47.9945 96.5967L47.8309 96.6564L47.2273 96.6998L47.0946 96.6709L47.0582 96.575L47.0946 96.4574ZM38.3418 94.3414C39.2109 94.1497 39.9309 93.7609 40.5055 93.1767C41.0691 92.6052 41.3491 91.9939 41.3491 91.341C41.3491 91.1294 41.3 90.9522 41.2 90.8111C41.0745 90.6863 40.9218 90.623 40.74 90.623C40.2527 90.623 39.7709 90.9848 39.2982 91.7046C39.22 91.8203 39.1473 91.9397 39.0782 92.0627C39.06 92.1531 39.0291 92.2453 38.9891 92.3376C38.9364 92.4406 38.8582 92.5745 38.7582 92.739C38.5655 93.2255 38.4273 93.7591 38.3418 94.3414ZM45.0764 91.5563L45.1145 91.6485L45.1345 91.7787C45.1345 91.9469 45.0618 92.1712 44.9182 92.4497C44.8673 92.5672 44.7927 92.7083 44.6927 92.8693C44.6564 92.9434 44.5345 93.1297 44.3273 93.4281C43.9164 93.9869 43.5073 94.4753 43.1 94.8912C42.6764 95.3271 42.2418 95.6924 41.7982 95.9908C40.9236 96.6003 40.0782 96.9042 39.26 96.9042C38.6109 96.9042 38.08 96.6926 37.6673 96.2693C37.3418 95.9094 37.1564 95.4428 37.1091 94.8677C36.7127 95.2765 36.3091 95.6291 35.8964 95.9257C34.9927 96.5786 34.1091 96.9042 33.2455 96.9042C32.6091 96.9042 32.06 96.6871 31.5982 96.2513C31.2455 95.8769 31.0382 95.432 30.9727 94.9202C30.5455 95.4428 30.1655 95.8461 29.8327 96.1301C29.3218 96.584 28.8873 96.8119 28.5309 96.8119C28.2255 96.8119 27.9636 96.6925 27.7455 96.4574C27.5255 96.2386 27.4164 95.9655 27.4164 95.6364C27.4164 95.4193 27.5982 94.7881 27.96 93.7464L28.26 92.8313L28.6055 91.7425L28.7091 91.3031C28.7091 91.2289 28.6818 91.162 28.6255 91.0987C28.5618 91.0499 28.4873 91.0245 28.4 91.0245C28.1818 91.0245 27.8345 91.2705 27.36 91.7606C26.8727 92.2706 26.3491 92.9181 25.7873 93.7084L25 94.8912C24.8745 95.1209 24.7818 95.3018 24.7182 95.432C24.6364 95.5676 24.56 95.7322 24.4836 95.9257L24.3727 96.197C24.2655 96.4502 24.12 96.5967 23.9327 96.6329L23.2582 96.7649H23.1636L23.0418 96.7088C23.0182 96.6582 23.0055 96.6202 23.0055 96.5967V96.4574L23.0418 96.3453L23.4455 95.0215C23.0745 95.4447 22.7364 95.7847 22.4273 96.0415C21.8273 96.5424 21.2782 96.792 20.78 96.792C20.4491 96.792 20.1855 96.6871 19.9927 96.4755C19.7982 96.2766 19.7018 95.9963 19.7018 95.6364L19.7582 95.1426L19.9545 94.4355L21.1436 90.7551L21.2945 90.5218L21.5091 90.4277L22.1745 90.2975H22.2491L22.3527 90.3355L22.3909 90.4277V90.5019L21.1073 94.4716L20.8909 95.2548L20.8164 95.6924C20.8164 95.848 20.8545 95.9745 20.9291 96.074C21.0036 96.1934 21.1182 96.2513 21.2764 96.2513C21.6436 96.2513 22.1818 95.8697 22.8873 95.1064C23.1418 94.8261 23.4218 94.4879 23.7291 94.0937L24.6909 90.9395C24.7473 90.7551 24.8127 90.6339 24.8873 90.5778C24.9382 90.5019 25.0164 90.4585 25.1218 90.4476L25.7673 90.2975L25.88 90.2794L26.0018 90.3174L26.04 90.4277V90.5019L24.7564 94.6109C25.7 93.1333 26.5091 92.0391 27.1873 91.3266C27.8655 90.6158 28.44 90.2613 28.9164 90.2613C29.1836 90.2613 29.4218 90.3608 29.6273 90.5634C29.8327 90.7659 29.9364 91.0119 29.9364 91.3031C29.9364 91.4604 29.8964 91.6702 29.8145 91.9379C29.7527 92.2417 29.7018 92.466 29.6655 92.6088C29.5655 92.8439 29.4927 93.0284 29.4491 93.1586L29.3 93.5583C28.8873 94.7393 28.6818 95.4501 28.6818 95.6924C28.6818 95.7865 28.7164 95.857 28.7855 95.9076C28.8473 95.9691 28.9273 95.9999 29.0273 95.9999C29.3218 95.9999 29.7764 95.6562 30.3909 94.9708C30.5636 94.7791 30.7545 94.553 30.9636 94.2944C30.9982 93.9381 31.0964 93.5457 31.26 93.1207C31.4782 92.6233 31.7727 92.1639 32.14 91.7425C32.5709 91.2452 33.0364 90.8563 33.5364 90.5778C34.0236 90.3102 34.5055 90.1763 34.98 90.1763C35.4345 90.1763 35.7964 90.2921 36.0655 90.5218C36.3527 90.7261 36.4964 91.0282 36.4964 91.4242C36.4964 91.7299 36.38 91.9903 36.1491 92.2073C35.9055 92.4189 35.6309 92.5256 35.3255 92.5256L34.98 92.4696C34.8855 92.4189 34.8127 92.3574 34.7636 92.2815C34.9691 92.1513 35.1345 91.9939 35.26 91.8076C35.3909 91.6268 35.4564 91.4532 35.4564 91.285C35.4564 91.0806 35.4073 90.916 35.3073 90.7912C35.2 90.661 35.0436 90.5887 34.8382 90.5778C34.6273 90.5778 34.4036 90.6556 34.1727 90.8111C33.9418 90.9649 33.7236 91.1765 33.5182 91.4441C33.1618 91.8727 32.8691 92.4009 32.6382 93.032C32.4073 93.6632 32.2909 94.2275 32.2909 94.723C32.2909 95.2457 32.4127 95.6454 32.6564 95.9257C32.9 96.2042 33.2655 96.3453 33.7527 96.3453C34.52 96.3453 35.3691 95.9257 36.3 95.0866C36.5691 94.8496 36.8382 94.5838 37.1073 94.289C37.14 93.8766 37.2455 93.4625 37.4236 93.0465C37.6364 92.5491 37.9418 92.059 38.3418 91.5743C38.6855 91.1529 39.1018 90.8075 39.5873 90.5398C40.0745 90.2975 40.5145 90.1763 40.9091 90.1763C41.3582 90.1763 41.7291 90.2975 42.0236 90.5398C42.3055 90.7949 42.4455 91.1077 42.4455 91.4803C42.4455 92.0898 42.0673 92.692 41.3127 93.2889C40.5618 93.9038 39.5727 94.4011 38.3418 94.7791C38.3418 95.2765 38.4636 95.6653 38.7073 95.9438C38.9509 96.2241 39.2891 96.3634 39.72 96.3634C40.5 96.3634 41.3655 95.9438 42.3145 95.1064C43.2455 94.2799 44.1655 93.0971 45.0764 91.5563ZM22.7745 88.7132C22.6564 88.7132 22.5327 88.6969 22.4055 88.6626C22.2764 88.6282 22.1564 88.5794 22.0436 88.5179C21.8 88.3931 21.6782 88.2665 21.6782 88.1363C21.6782 88.0621 21.7491 87.8849 21.8945 87.6046C21.9564 87.4924 22.0182 87.3966 22.08 87.317C22.1055 87.2917 22.1382 87.2609 22.1745 87.223C22.2255 87.223 22.3273 87.2664 22.4836 87.3532L22.7564 87.5304L22.8964 87.6046C23.0455 87.6679 23.1327 87.7565 23.1582 87.8758C23.1582 88.1923 23.1327 88.4058 23.0836 88.5179C23.0145 88.6481 22.9127 88.7132 22.7745 88.7132ZM15.48 92.2073L15.5745 92.2851L15.5927 92.4569L15.5 92.5709C14.0873 92.5709 13.0255 92.7626 12.3145 93.1478C11.5964 93.5258 11.2364 94.0955 11.2364 94.8569C11.2364 95.3669 11.4673 95.7666 11.9309 96.0577C12.3727 96.3616 12.9673 96.5117 13.7091 96.5117C14.9145 96.5117 15.9273 96.1952 16.7455 95.5622C17.5636 94.9292 17.9727 94.1588 17.9727 93.2509C17.9727 93.0465 17.9527 92.8566 17.9164 92.683C17.8782 92.5039 17.8036 92.3104 17.6909 92.1061C17.5218 91.7389 17.2418 91.3573 16.8473 90.9594L15.2564 89.3571C14.8309 88.9411 14.4964 88.5016 14.2527 88.0422C14.0091 87.5829 13.8873 87.1506 13.8873 86.7473C13.8873 85.8539 14.34 85.0834 15.2455 84.436C16.1527 83.7903 17.2636 83.4666 18.5818 83.4666C19.3618 83.4666 19.9709 83.6022 20.4073 83.8681C20.8455 84.1484 21.0636 84.5336 21.0636 85.0238C21.0636 85.5464 20.7673 85.9877 20.1727 86.3476C19.5745 86.7021 18.8091 86.8793 17.8782 86.8793H17.5873L17.2236 86.8594L17.1291 86.7853V86.6352L17.2036 86.5339C18.0345 86.5339 18.68 86.4001 19.1436 86.1324C19.6182 85.8901 19.8564 85.5211 19.8564 85.0238C19.8564 84.6819 19.7055 84.4089 19.4055 84.2045C19.1 84.0182 18.6909 83.9242 18.1782 83.9242C17.3218 83.9242 16.5945 84.1575 15.9964 84.6241C15.3836 85.1088 15.0782 85.6766 15.0782 86.3277C15.0782 86.6695 15.1818 87.0186 15.3873 87.3713C15.58 87.7438 15.8982 88.167 16.3418 88.6391L17.9909 90.3174C18.3782 90.6827 18.68 91.0897 18.9 91.5364C19.1 92.0084 19.2 92.4461 19.2 92.8512C19.2 93.2852 19.0873 93.7229 18.8618 94.1642C18.6127 94.6109 18.2909 95.0124 17.8964 95.3669C17.3164 95.8624 16.6582 96.2458 15.92 96.5117C15.1655 96.7794 14.3527 96.9132 13.4855 96.9132C12.38 96.9132 11.4945 96.7124 10.8291 96.3128C10.1636 95.9113 9.83273 95.3687 9.83273 94.6869C9.83273 93.8983 10.28 93.287 11.1764 92.8548C12.0727 92.4244 13.3655 92.2073 15.06 92.2073H15.48ZM44.6582 14.4449V18.2067H34.2345V26.7395H44.6582V30.4995H34.2345V39.6309H44.6582V43.3456H30.9127V14.4449H44.6582ZM54.7636 18.6661L54.7655 18.7746L54.7764 18.8831C55.0564 21.9685 55.6364 24.1478 56.1473 26.0703C56.7364 28.284 57.2018 30.0329 57.2018 32.9012C57.2018 35.983 56.3309 43.4306 48.2618 46.0114C43.7545 47.4528 40.4927 50.068 38.2727 52.4987L37.8709 53.0883L37.4691 52.4987C35.2491 50.068 31.9873 47.4528 27.48 46.0114C19.4109 43.4306 18.54 35.983 18.54 32.9012C18.54 30.0329 19.0055 28.284 19.5945 26.0703C20.1055 24.1478 20.6855 21.9685 20.9673 18.8831L20.9764 18.7746L20.98 18.6661C21.0855 14.4612 19.8091 11.4717 18.5145 9.53832L23.2927 4.35319C26.4255 6.21781 32.0164 8.96139 37.8436 9.01203H37.9C43.7255 8.96139 49.3164 6.21781 52.4491 4.35319L57.2273 9.53832C55.9327 11.4717 54.6564 14.4612 54.7636 18.6661ZM61.74 9.48406L52.9964 0C52.9964 0 45.5091 5.6029 37.8709 5.66801C30.2327 5.6029 22.7455 0 22.7455 0L14.0036 9.48406C14.0036 9.48406 17.78 12.2186 17.6182 18.5811C17.0527 24.7899 15.1782 26.8787 15.1782 32.9012C15.1782 37.5962 16.9655 46.1597 26.4509 49.1945C32.6291 51.1712 36.0945 55.7903 37.4873 58.0817C37.1491 57.8611 36.7455 57.7345 36.3109 57.7345C35.12 57.7345 34.1545 58.6948 34.1545 59.8812C34.1545 60.2791 34.2636 60.6535 34.4545 60.9736C33.6636 61.0242 32.9873 61.4981 32.6564 62.1709C32.3564 62.2721 32.0436 62.3843 31.72 62.5091C31.0545 62.7713 30.3418 63.0896 29.6145 63.511C28.9418 63.9035 28.2473 64.3863 27.6218 65.023C27.3164 64.9994 26.8909 64.9524 26.4164 64.8331C25.9145 64.7046 25.3418 64.4876 24.9491 64.1024C24.7564 63.9107 24.6055 63.681 24.5382 63.3971L24.5127 63.3012L24.4909 63.1565C24.4818 63.0661 24.4709 63.0118 24.4691 62.9286C24.46 62.7695 24.4727 62.6158 24.5073 62.4693C24.5727 62.1781 24.7309 61.9231 24.9782 61.7531C25.2236 61.5849 25.5473 61.5071 25.8509 61.5433C26.1545 61.5795 26.4345 61.726 26.6091 61.9538C26.7927 62.1926 26.88 62.4747 26.8655 62.7388C26.8582 62.8762 26.8236 63.0064 26.7709 63.1222C26.78 63.0733 26.7855 63.0227 26.7855 62.9721C26.7855 62.5525 26.4436 62.2125 26.0236 62.2125C25.6036 62.2125 25.2636 62.5525 25.2636 62.9721C25.2636 63.2397 25.4 63.4748 25.6091 63.6105C25.58 63.5978 25.5655 63.5888 25.5655 63.5888C25.5655 63.5888 25.6036 63.6195 25.6873 63.6611C25.7709 63.7027 25.9036 63.757 26.0855 63.7497C26.2655 63.7461 26.4891 63.6756 26.6855 63.511C26.8836 63.3482 27.06 63.0932 27.12 62.7713C27.1836 62.4512 27.1164 62.075 26.9309 61.7495C26.7436 61.404 26.3836 61.1291 25.9636 61.0134C25.5473 60.8958 25.0655 60.923 24.6291 61.1255C24.1927 61.3263 23.8327 61.7296 23.6527 62.1835C23.56 62.4096 23.5036 62.6447 23.48 62.8762C23.4636 62.9865 23.46 63.1276 23.4564 63.2325V63.3772C23.4582 63.4586 23.4673 63.5038 23.4727 63.5671C23.5145 64.0499 23.7236 64.5238 24.0036 64.8945C24.2564 65.2237 24.5545 65.4823 24.8527 65.6867C24.2818 65.674 23.6473 65.6686 23.0091 65.6813C22.7545 65.6849 22.4982 65.6939 22.2455 65.7102C21.9927 65.7283 21.7455 65.7391 21.48 65.8169C21.2291 65.8893 20.9909 66.014 20.8218 66.1967C20.6491 66.3776 20.56 66.6054 20.54 66.8098C20.5036 67.2258 20.6782 67.5278 20.8018 67.7068C20.8655 67.7973 20.9273 67.8606 20.9673 67.904L20.9891 67.9239L20.9927 67.9275C21.1309 68.0758 21.3291 68.168 21.5473 68.168C21.9673 68.168 22.3073 67.828 22.3073 67.4066C22.3073 66.987 21.9673 66.647 21.5473 66.647C21.1273 66.647 20.7855 66.987 20.7855 67.4066C20.7855 67.4717 20.7945 67.5332 20.8091 67.5929C20.7291 67.403 20.66 67.1317 20.7345 66.8442C20.7782 66.6796 20.8745 66.5222 21.0218 66.4101C21.1655 66.2962 21.3582 66.2311 21.5655 66.2039C21.76 66.1786 22.0036 66.1967 22.2436 66.2148C22.4836 66.2347 22.7309 66.2618 22.9782 66.2908C23.9655 66.4137 24.9545 66.5801 25.6927 66.7067L26.3873 66.8315C26.2509 67.1534 26.1455 67.4916 26.0818 67.8443C26.06 67.9781 26.0382 68.0885 26.0255 68.2458L26.0018 68.575C25.9945 68.8101 25.98 69.1012 26.0018 69.3436C26.0273 69.8464 26.12 70.36 26.3055 70.8501C26.6564 71.8376 27.4236 72.6985 28.3545 73.1126C29.2782 73.5431 30.2982 73.6118 31.2 73.3875C32.1018 73.1651 32.9073 72.6171 33.34 71.8774C33.5473 71.5301 33.7036 71.1413 33.7836 70.7651C33.8618 70.3853 33.8691 70.0037 33.8109 69.651C33.7 68.9403 33.3236 68.3652 32.8945 67.9962C32.6818 67.8099 32.4527 67.6743 32.2273 67.5839C31.9982 67.4699 31.7418 67.4066 31.4691 67.4066C31.1291 67.4066 30.8127 67.5061 30.5455 67.6761L30.5418 67.6779V67.6797L30.5382 67.6815L30.5364 67.6833C30.5073 67.6996 30.4818 67.7159 30.4618 67.7286C30.4164 67.7575 30.3927 67.772 30.3927 67.772L30.4491 67.743C30.0255 68.0559 29.7491 68.5605 29.7491 69.1284C29.7491 70.0797 30.52 70.8483 31.4691 70.8483C32.42 70.8483 33.1891 70.0797 33.1891 69.1284C33.1891 68.9819 33.1709 68.839 33.1364 68.7016C33.2945 68.9945 33.4036 69.3327 33.4273 69.6981C33.48 70.3184 33.28 70.9912 32.86 71.5645C32.4545 72.1179 31.7764 72.4832 31.0382 72.5899C30.2982 72.6948 29.4982 72.5465 28.86 72.1631C28.2109 71.7833 27.7691 71.154 27.5909 70.4414C27.4982 70.0851 27.4673 69.7053 27.4891 69.3219C27.4891 69.2242 27.4982 69.1338 27.5109 69.0452C27.5236 68.9493 27.5236 68.8788 27.5455 68.7649L27.6018 68.4393C27.6127 68.3778 27.6418 68.2729 27.6618 68.1934C27.8527 67.517 28.2673 66.9382 28.7964 66.4662C29.3255 65.9941 29.9509 65.6234 30.5836 65.3322C31.2164 65.0356 31.8582 64.815 32.46 64.6395C32.6255 64.5907 32.7891 64.5473 32.9509 64.5057C33.3473 64.9687 33.9364 65.2617 34.5945 65.2617H34.6218C34.6036 65.3738 34.5945 65.4878 34.5945 65.6053C34.5945 66.8026 35.5709 67.7738 36.7745 67.7738C37.4891 67.7738 38.1218 67.4319 38.52 66.9039C38.9145 67.4193 39.5364 67.7521 40.2364 67.7521C41.4291 67.7521 42.3945 66.7899 42.3945 65.6053C42.3945 65.2725 42.3182 64.9578 42.1836 64.6775C42.4164 64.6359 42.6364 64.56 42.8364 64.4515C43.0636 64.5075 43.3 64.569 43.5418 64.6395C44.1436 64.815 44.7836 65.0356 45.4164 65.3304C46.0491 65.6234 46.6745 65.9941 47.2055 66.4662C47.7327 66.9382 48.1473 67.517 48.3382 68.1934C48.36 68.2729 48.3873 68.3778 48.3982 68.4393L48.4564 68.7649C48.4764 68.8788 48.4764 68.9493 48.4891 69.0452C48.5018 69.1338 48.5109 69.2242 48.5109 69.3219C48.5327 69.7053 48.5018 70.0851 48.4091 70.4414C48.2309 71.154 47.7891 71.7833 47.1418 72.1631C46.5018 72.5465 45.7018 72.6966 44.9636 72.5899C44.2236 72.4832 43.5455 72.1179 43.14 71.5645C42.72 70.9912 42.5218 70.3202 42.5727 69.6981C42.5964 69.3327 42.7055 68.9945 42.8636 68.7016C42.8291 68.839 42.8109 68.9819 42.8109 69.1284C42.8109 70.0797 43.5818 70.8483 44.5309 70.8483C45.48 70.8483 46.2509 70.0797 46.2509 69.1284C46.2509 68.5605 45.9764 68.0577 45.5527 67.7448L45.6073 67.772C45.6073 67.772 45.5836 67.7575 45.5382 67.7286C45.5164 67.7141 45.4909 67.6978 45.4582 67.6797V67.6779L45.4564 67.6761L45.4527 67.6743C45.1855 67.5061 44.8709 67.4066 44.5309 67.4066C44.2582 67.4066 44 67.4717 43.7709 67.5839C43.5455 67.6761 43.3182 67.8099 43.1055 67.9944C42.6764 68.3652 42.3 68.9403 42.1891 69.651C42.1327 70.0037 42.1382 70.3853 42.2164 70.7651C42.2964 71.1413 42.4527 71.5301 42.66 71.8774C43.0927 72.6171 43.8982 73.1651 44.8 73.3875C45.7036 73.61 46.7218 73.5431 47.6455 73.1144C48.5764 72.6985 49.3436 71.8376 49.6964 70.8501C49.88 70.36 49.9727 69.8464 49.9982 69.3436C50.02 69.0994 50.0055 68.8101 49.9982 68.5768L49.9745 68.2458C49.9618 68.0885 49.94 67.9781 49.9182 67.8443C49.8545 67.4916 49.7509 67.1534 49.6127 66.8315L50.3073 66.7067C51.0455 66.5801 52.0345 66.4137 53.0236 66.2908C53.2691 66.2618 53.5164 66.2347 53.7564 66.2148C53.9964 66.1985 54.24 66.1786 54.4346 66.2039C54.6418 66.2311 54.8345 66.2962 54.98 66.4101C55.1255 66.5222 55.2218 66.6796 55.2655 66.8442C55.3418 67.1317 55.2709 67.4048 55.1909 67.5947C55.2055 67.535 55.2146 67.4717 55.2146 67.4066C55.2146 66.987 54.8727 66.647 54.4527 66.647C54.0327 66.647 53.6927 66.987 53.6927 67.4066C53.6927 67.828 54.0327 68.168 54.4527 68.168C54.6727 68.168 54.8691 68.0758 55.0073 67.9275L55.0327 67.904C55.0746 67.8606 55.1345 67.7973 55.1982 67.7068C55.3218 67.5278 55.4964 67.2258 55.46 66.8098C55.44 66.6054 55.3509 66.3776 55.18 66.1967C55.0091 66.014 54.7709 65.8893 54.52 65.8169C54.2546 65.7391 54.0073 65.7283 53.7545 65.7102C53.5018 65.6939 53.2473 65.6867 52.9927 65.6813C52.3545 65.6686 51.7182 65.6758 51.1473 65.6867C51.4455 65.4841 51.7436 65.2237 51.9964 64.8945C52.2764 64.5238 52.4855 64.0499 52.5273 63.5671C52.5327 63.5038 52.5418 63.4586 52.5436 63.3772V63.2325C52.54 63.1276 52.5364 62.9865 52.5218 62.8762C52.4964 62.6447 52.44 62.4096 52.3473 62.1835C52.1673 61.7296 51.8091 61.3263 51.3709 61.1255C50.9345 60.923 50.4527 60.8958 50.0364 61.0134C49.6182 61.1291 49.2564 61.404 49.0691 61.7495C48.8836 62.0768 48.8182 62.4512 48.8818 62.7713C48.9418 63.0932 49.1182 63.35 49.3145 63.511C49.5127 63.6756 49.7364 63.7461 49.9145 63.7497C50.0964 63.757 50.2309 63.7027 50.3127 63.6611C50.3964 63.6195 50.4346 63.5888 50.4346 63.5888C50.4346 63.5888 50.42 63.596 50.3927 63.6105C50.6 63.473 50.7364 63.2397 50.7364 62.9721C50.7364 62.5525 50.3964 62.2125 49.9764 62.2125C49.5564 62.2125 49.2164 62.5525 49.2164 62.9721C49.2164 63.0227 49.22 63.0733 49.2309 63.1222C49.1764 63.0064 49.1418 62.8762 49.1346 62.7388C49.12 62.4747 49.2073 62.1926 49.3909 61.9538C49.5655 61.726 49.8455 61.5795 50.1491 61.5433C50.4545 61.5071 50.7764 61.5849 51.0218 61.7531C51.2691 61.9231 51.4273 62.1781 51.4927 62.4693C51.5273 62.614 51.54 62.7695 51.5309 62.9286C51.5291 63.0118 51.52 63.0661 51.5091 63.1565L51.4873 63.3012L51.4618 63.3971C51.3946 63.681 51.2436 63.9107 51.0527 64.1024C50.6582 64.4876 50.0855 64.7046 49.5855 64.8331C49.1109 64.9524 48.6836 64.9994 48.3782 65.023C47.7527 64.3863 47.06 63.9035 46.3855 63.511C45.6582 63.0896 44.9455 62.7713 44.28 62.5091C44.1727 62.4675 44.0655 62.4277 43.96 62.3879C43.8709 61.2847 42.9418 60.4166 41.8091 60.4166H41.8C41.8673 60.2104 41.9036 59.9879 41.9036 59.7583C41.9036 58.5736 40.9382 57.6115 39.7455 57.6115C39.0491 57.6115 38.4291 57.9425 38.0345 58.4525C39.26 56.3292 42.7582 51.2852 49.2927 49.1945C58.7782 46.1597 60.5636 37.5962 60.5636 32.9012C60.5636 26.8787 58.6891 24.7899 58.1236 18.5811C57.9636 12.2186 61.74 9.48406 61.74 9.48406ZM61.1564 13.5334C61.1564 13.5334 62.3273 13.6094 63.7382 14.4305C62.6982 12.3163 62.7745 10.2907 62.7745 10.2907C62.7745 10.2907 64.8364 11.2619 66.0636 13.6636C66.2218 12.0848 66.7673 10.9544 66.7673 10.9544C66.7673 10.9544 69.4273 14.1158 67.3036 18.5811L67.2727 18.5377C67.3927 18.8035 67.5273 19.1056 67.6636 19.4438C67.8182 19.8163 67.9964 20.2251 68.1764 20.6754L68.3291 21.0787C67.1909 15.3962 69.4345 12.4157 69.4345 12.4157C69.4345 12.4157 72.0236 16.9769 68.6109 21.8148L68.7346 22.1421C68.9164 22.6738 69.1091 23.2381 69.3127 23.8349C69.3545 23.9796 69.3982 24.1261 69.4436 24.2744C68.8109 19.2575 72.0909 16.0563 72.0909 16.0563C72.0909 16.0563 73.6327 19.7494 71.5818 23.6016C72.1491 22.9198 72.9309 22.247 74.0036 21.643C74.5273 26.7865 71.4 28.152 70.4945 28.4377C70.5982 28.9803 70.6909 29.5391 70.7746 30.1124C70.8036 30.315 70.8309 30.5194 70.8564 30.7255C71.2945 29.0743 72.3164 27.2567 74.5182 25.8262C75.6509 33.1345 72.0291 34.7984 71.0509 35.1095C71.0255 35.7768 70.9727 36.4514 70.8891 37.1314C71.6873 35.9559 73.1891 34.585 76 33.319C75.92 38.0194 71.5673 39.62 70.3564 39.9763C70.3182 40.1228 70.28 40.2693 70.2382 40.4158C70.1945 40.5803 70.1473 40.7431 70.0982 40.9077C71.0855 39.8931 72.7891 38.8061 75.7255 38.0285C74.8655 42.6855 70.2491 43.5319 69.0327 43.6748C68.8873 43.9877 68.7327 44.2969 68.5709 44.6044C69.6327 43.9135 71.5291 43.3113 74.8382 43.7797C72.6545 47.0767 68.92 46.4111 67.7109 46.0874C67.4727 46.4618 67.2218 46.8289 66.9618 47.1888C68.0182 46.7312 69.5927 46.4455 71.9146 46.7529C69.8927 49.9251 66.5709 49.4423 65.3764 49.142C65.1255 49.4187 64.8691 49.69 64.6055 49.9541C64.5018 50.0572 64.3982 50.1621 64.2927 50.2633C65.7673 49.8365 67.8582 49.6502 70.8091 50.0915C67.8764 54.3651 62.6436 53.195 61.2818 52.8007C60.9964 53.0087 60.7091 53.2113 60.4218 53.4084L60.2018 53.5567C61.6582 53.4681 63.8873 53.667 67.3218 54.5659C65.08 57.2914 59.6764 55.8626 57.9455 54.9421C57.7491 55.0524 57.5545 55.1591 57.3582 55.2658C60.8636 55.255 64.3164 58.1251 64.1855 58.769C63.7982 58.863 61.7746 61.0821 54.2582 56.7669C53.8291 56.9514 53.4073 57.1268 52.9909 57.2914C55.9146 57.9045 58.4255 60.0838 58.3127 60.6336C57.9291 60.7276 55.9491 62.8961 48.6455 58.7798C47.3618 59.1524 46.2364 59.4237 45.3273 59.6208C44.5218 59.7944 43.8836 59.912 43.4455 59.9843C43.2236 60.0187 43.0527 60.0458 42.9382 60.0621C42.82 60.0802 42.7582 60.0874 42.7582 60.0874L42.5527 58.3295C42.5527 58.3295 42.6055 58.3241 42.7091 58.3132C42.8164 58.3006 42.9745 58.2807 43.1818 58.2535C43.5964 58.1975 44.2109 58.1052 44.9909 57.9605C46.1727 57.7417 47.7382 57.4035 49.5564 56.8772C49.4127 55.7867 49.7109 53.4392 53.5709 48.8436C54.9945 51.4317 53.2491 54.4682 51.6582 56.2171C52.4764 55.9368 53.3273 55.6203 54.2 55.2604C53.9382 54.1445 53.9927 51.7391 56.6091 46.4979C58.4145 48.7116 57.1218 52.392 55.8982 54.5098C56.4436 54.253 56.9964 53.9799 57.5473 53.6851C57.2055 52.8496 56.9545 50.9397 59.12 46.6245C60.8073 48.4331 60.0182 51.1495 59.0946 52.8062C59.3146 52.6741 59.5327 52.5385 59.7491 52.3992C60.2818 52.0592 60.8109 51.7011 61.3309 51.3195C60.6673 50.5473 59.5273 48.2794 61.4618 42.7361C63.8927 45.2971 62.8564 48.9612 62.1564 50.6902C62.7436 50.2254 63.3145 49.7298 63.8655 49.2053C64.0636 49.0191 64.2582 48.8274 64.4509 48.6338C63.7909 48.0442 62.2455 45.9373 63.9745 39.9293C66.6273 42.4305 65.6564 46.308 65.0527 47.9954C65.8745 47.0929 66.6255 46.1145 67.2909 45.08C67.62 44.5555 67.9291 44.0148 68.2146 43.4632C67.4564 43.1756 66.0509 42.1556 65.1855 38.5602C67.5255 39.1118 68.3327 41.3779 68.6036 42.6674C68.9055 42.0163 69.1727 41.349 69.3982 40.6726C68.4818 40.3832 65.7345 38.9038 64.9309 31.552C65.9527 31.9409 66.7564 32.5287 67.3891 33.2195C66.4436 32.0331 65.5509 30.1739 65.1182 27.2658C65.6364 27.4141 66.1055 27.5967 66.5327 27.8047C65.5309 26.8787 64.62 25.4825 64.2236 23.3828C67.7545 24.2111 69.2709 25.8262 69.9091 27.2043C69.8145 26.7232 69.7127 26.2566 69.6 25.8045C69.4546 25.1335 69.26 24.5041 69.1036 23.8964L68.94 23.3701C63.5218 21.8329 62.6182 17.0239 62.6182 17.0239C62.6182 17.0239 66.4091 17.6497 68.2327 21.1981L68.0673 20.717C67.9018 20.2612 67.7346 19.8489 67.5927 19.4727C67.4691 19.1381 67.3473 18.8379 67.2364 18.572C63.0636 17.9336 61.1564 13.5334 61.1564 13.5334ZM67.7036 33.5903C69.2836 35.5815 69.6327 38.2455 69.6982 39.696C70.1109 38.2292 70.3618 36.7408 70.4745 35.2795C70.0018 35.1854 68.8473 34.8382 67.7036 33.5903ZM68.2909 28.9966C69.7109 30.3059 70.3055 31.959 70.5473 33.2467C70.5436 32.1887 70.4764 31.156 70.3655 30.1631C70.3436 29.9786 70.3218 29.7941 70.2982 29.6115C70.1218 29.5916 69.2927 29.474 68.2909 28.9966ZM70.1727 26.9149C70.2273 26.3398 70.38 25.6525 70.7255 24.9291C70.4818 25.2474 70.2109 25.5621 69.9073 25.875C70 26.2132 70.0891 26.5604 70.1727 26.9149ZM8.29455 33.5903C7.15273 34.8382 5.99818 35.1854 5.52545 35.2795C5.63818 36.7408 5.88909 38.2292 6.30182 39.696C6.36727 38.2455 6.71636 35.5815 8.29455 33.5903ZM7.70727 28.9966C6.70727 29.474 5.87818 29.5916 5.70182 29.6115C5.67818 29.7941 5.65636 29.9768 5.63455 30.1631C5.52364 31.1542 5.45636 32.1868 5.45273 33.2448C5.69636 31.959 6.28909 30.3059 7.70727 28.9966ZM5.82727 26.9149C5.91091 26.5604 6 26.2132 6.09273 25.875C5.78909 25.5621 5.51818 25.2474 5.27455 24.9291C5.62182 25.6525 5.77273 26.3398 5.82727 26.9149Z" fill="#373435"/>
</svg>