<svg width="109" height="52" viewBox="0 0 109 52" fill="none" xmlns="http://www.w3.org/2000/svg">
<g id="Layer_x0020_1">
<path id="Vector" d="M7.4168 36.6195H3.86058V32.7589H0V29.2049H3.86058V25.3444H7.4168V29.2049H11.2751V32.7589H7.4168V36.6195ZM19.3327 13.8519L19.3258 25.5549C19.3189 25.9348 19.2549 31.4751 23.9438 31.4751H39.0772C43.8074 31.4751 43.7044 25.8547 43.6976 25.5526L43.693 13.8519H44.2697H45.2835H48.9701V14.3279V25.8318C48.9861 26.3124 49.2836 36.8369 39.2534 36.8369H23.7722C13.7397 36.8369 14.0372 26.3124 14.0555 25.8318L14.0532 13.8519H17.0442H18.756H19.3327ZM58.133 0H52.8765V14.9091V19.4471L52.9039 19.4105C53.1511 24.104 55.1557 28.3285 58.2703 31.443C61.6 34.7727 66.1997 36.8346 71.28 36.8369H71.2915H88.3952C98.4277 36.8369 98.1302 26.3124 98.1119 25.8318V13.8519H94.2467H93.4137H92.6196V24.7128V24.7242C92.6219 24.7425 92.8714 31.4636 87.4295 31.4636H84.2943L84.3126 31.443C87.6446 28.1111 89.7065 23.5068 89.7065 18.4219C89.7065 13.337 87.6446 8.73265 84.3126 5.4007L84.1662 5.25652H98.51V4.59746V4.06196V0.00686529H71.3098H71.2915C66.2066 0.00686529 61.6022 2.06874 58.2703 5.4007L58.133 5.54029V0ZM108.016 0H107.35H102.76V36.8369H106.874H107.35H108.016V0ZM80.4978 9.21551C82.8549 11.5703 84.3126 14.8267 84.3126 18.4219C84.3126 22.017 82.8549 25.2734 80.4978 27.6305C78.143 29.9853 74.8866 31.443 71.2915 31.443C67.694 31.443 64.4399 29.9853 62.0828 27.6305C59.728 25.2734 58.2703 22.017 58.2703 18.4219C58.2703 14.8267 59.728 11.5703 62.0828 9.21322C64.4399 6.85843 67.694 5.4007 71.2915 5.4007C74.8866 5.4007 78.1407 6.85843 80.4978 9.21551ZM41.3931 6.1124L36.2876 11.2202L31.5163 6.4488L26.7472 11.2202L21.303 5.776L26.7472 0.334111L31.5163 5.1032L36.2876 0.334111L41.7272 5.776L41.3931 6.1124ZM97.835 46.8922L92.7295 52L87.9604 47.2286L83.1913 52L77.7494 46.5558L83.1913 41.1139L87.9604 45.8853L92.7295 41.1139L98.1736 46.5558L97.835 46.8922Z" fill="black"/>
</g>
</svg>
