<svg width="97" height="37" viewBox="0 0 97 37" fill="none" xmlns="http://www.w3.org/2000/svg">
<path d="M17.9019 15.4579H5.14852V5.16316H19.1211V0H0V36.0791H19.1211V30.9159H5.14852V20.6211H17.7739C18.827 29.8261 26.6429 37 36.1002 37C43.1393 37 49.2713 33.0212 52.3765 27.1893H46.175C43.7343 30.0332 40.1238 31.8391 36.1002 31.8391C28.7625 31.8391 22.7967 25.8541 22.7967 18.4977C22.7967 11.1459 28.7625 5.16316 36.1002 5.16316C40.0587 5.16316 43.6176 6.90823 46.056 9.67332H52.3047C49.1747 3.91571 43.0854 0 36.1002 0C26.9595 0 19.3524 6.70107 17.9019 15.4579ZM94.1664 31.5914C92.8866 31.5914 91.8492 32.6317 91.8492 33.9152C91.8492 35.1964 92.8866 36.2412 94.1664 36.2412C95.444 36.2412 96.4836 35.1964 96.4836 33.9152C96.4836 32.6317 95.444 31.5914 94.1664 31.5914ZM94.1664 36.7568C92.6037 36.7568 91.3306 35.4823 91.3306 33.9152C91.3306 32.348 92.6037 31.0735 94.1664 31.0735C95.7247 31.0735 97 32.348 97 33.9152C97 35.4823 95.7247 36.7568 94.1664 36.7568ZM93.5445 33.9039C93.5961 33.9062 93.6545 33.9062 93.888 33.9062C94.4942 33.9062 94.7053 33.6427 94.7053 33.3004C94.7053 32.9312 94.4561 32.6947 94.0407 32.6947H93.5445V33.9039ZM93.5445 34.1471V35.4846H93.147V32.3457H94.0497C94.6536 32.3457 95.1027 32.6947 95.1027 33.2937C95.1027 33.8566 94.6581 34.2034 94.1484 34.2349L95.3677 35.4846H94.8131L93.5445 34.1471ZM76.3902 24.2081V5.16316H83.2901V36.0092H88.4341V5.16316H95.3317V0H87.6078H83.2901H76.3902H71.2462V24.2914L71.2529 24.5053C71.2552 24.5391 71.4528 28.0292 69.4544 30.0085C68.5316 30.9272 67.2024 31.4405 65.4959 31.5599C65.3904 31.5644 65.2849 31.5756 65.1838 31.5801C65.0334 31.5824 64.8762 31.5824 64.7213 31.5824C64.5552 31.5824 64.389 31.5824 64.2296 31.5801C64.1353 31.5756 64.0342 31.5644 63.9422 31.5599C62.2357 31.4428 60.9043 30.9362 59.9792 30.031C57.9337 28.0225 58.1627 24.5278 58.1627 24.5053L58.1717 24.3972V0H53.0232V24.2081C52.9738 25.1245 52.8593 30.2246 56.3395 33.681C58.028 35.3608 60.2194 36.3493 62.8779 36.6555V36.6622C63.0081 36.6758 63.1294 36.6825 63.2618 36.6893C63.3966 36.705 63.5313 36.7163 63.6727 36.7208C63.7423 36.7253 63.8164 36.732 63.886 36.7365C64.1488 36.7456 64.4159 36.7568 64.6854 36.7568C64.6921 36.7568 64.7011 36.7523 64.7056 36.7523C64.7146 36.7523 64.7213 36.7568 64.728 36.7568C64.9997 36.7568 65.2669 36.7456 65.5274 36.7365C65.5992 36.732 65.6756 36.7253 65.7474 36.7208C65.8821 36.7163 66.0191 36.705 66.1516 36.6893C66.2818 36.6825 66.4053 36.6758 66.54 36.6622V36.6555C69.194 36.3493 71.3854 35.3608 73.0784 33.681C76.5564 30.2246 76.4441 25.1245 76.3902 24.2081Z" fill="black"/>
</svg>
