<svg width="58" height="108" viewBox="0 0 58 108" fill="none" xmlns="http://www.w3.org/2000/svg">
<g id="Layer_x0020_1">
<path id="Vector" d="M57.8465 21.365C57.0642 20.8629 56.316 20.2805 55.4777 19.8711C52.1269 18.2139 48.8126 16.5203 46.0125 13.9785C44.1068 12.2458 42.5934 10.2231 41.4992 7.89336C40.6999 6.16555 39.5229 4.76916 37.912 3.7505C36.5351 2.88294 35.0729 2.46378 33.4182 2.81227C32.1437 3.0779 31.7245 2.61244 31.995 1.34765C32.0681 0.989412 32.1486 0.63605 32.2607 0.0926051C31.8756 0.241261 31.5929 0.304622 31.3614 0.441092C30.4987 0.940672 29.6726 1.50361 28.8002 1.96664C27.8351 2.47597 27.4111 2.2079 27.2624 1.11613C27.204 0.735966 27.1089 0.372857 27.0285 0C26.8018 0.0463025 26.5801 0.099916 26.3486 0.153529C25.481 1.13807 24.6183 2.12504 23.7459 3.09983C22.5201 4.47429 21.7963 4.61807 20.1392 3.85773C19.6591 3.63597 19.1571 3.44588 18.6453 3.30454C18.1701 3.16807 17.8582 3.35571 17.9361 3.9016C18.0239 4.54252 18.1311 5.18101 18.2578 5.81219C18.5503 7.32311 18.1628 8.13706 16.7493 8.77067C15.9305 9.13135 15.0776 9.42134 14.2368 9.75521C14.093 9.8137 13.9712 9.93067 13.8493 10.0233C14.2003 10.6764 14.5512 11.2905 14.8534 11.9363C15.3919 13.0987 15.3359 14.2417 14.578 15.2896C14.1052 15.9476 13.5618 16.5544 13.0354 17.1758C12.5699 17.7339 12.6138 18.097 13.2888 18.4113C13.8737 18.6892 14.5073 18.85 15.0922 19.1132C15.7112 19.3813 16.3399 19.6518 16.9199 19.9832C17.0271 21.0457 16.5739 22.1082 14.5268 22.3934C11.4733 23.0026 12.5017 24.0481 15.7331 25.2982C18.967 26.546 13.6203 29.7018 12.6966 29.3314C11.773 28.9708 11.6097 30.4939 14.8217 32.0292C18.0312 33.5693 16.0597 33.7131 15.2969 33.8666C14.6365 33.9958 15.1166 36.0697 18.1165 37.7146C18.3724 39.5472 18.9012 40.7657 19.3203 42.8103C17.556 42.0354 15.6527 40.0541 14.249 35.5798C14.249 35.5798 17.9946 50.5136 5.74395 36.8763C5.74395 36.8763 11.0297 46.3001 7.58143 46.7607C4.13555 47.2188 0 46.7607 0 46.7607C0 46.7607 12.4091 49.5169 8.95832 52.2731C6.8942 53.9254 5.49782 54.5907 4.69605 54.8563C6.44824 54.5151 10.535 54.0667 10.9201 57.1032C11.1589 59.0065 10.5692 59.857 10.5692 59.857C10.5692 59.857 14.6584 57.8075 17.0076 58.0731C16.7152 58.7287 16.4179 59.3988 16.106 60.1031C15.6722 60.4004 15.2287 60.705 14.8363 60.9439C13.6154 61.7091 13.8761 62.0917 14.8363 62.9349C14.8534 62.9519 14.8655 62.9666 14.8899 62.9812C14.7047 63.4296 14.5268 63.8902 14.3513 64.3629C13.7275 64.8308 12.8453 65.2281 12.2385 65.3816C11.2832 65.6204 12.5894 66.9705 13.1304 67.9185C12.9111 68.6447 12.6918 69.405 12.4773 70.2044C12.3238 70.2799 12.1361 70.3579 11.8949 70.4334C10.4034 70.8916 11.5634 71.7324 11.8949 72.344C11.9119 72.3635 11.9241 72.3879 11.9363 72.4123C11.7901 73.0361 11.6536 73.6795 11.5269 74.3448C11.3027 74.4666 11.0127 74.5666 10.6252 74.6397C8.91689 74.954 10.3596 76.1652 11.0809 76.8305C11.0005 77.335 10.9201 77.854 10.8421 78.3829C10.5082 78.6656 10.0379 78.975 9.40429 79.3016C8.03714 80.0181 9.46034 81.2926 10.3961 82.07C10.3864 82.1943 10.3693 82.321 10.3596 82.4453C10.3084 83.0204 10.267 83.5858 10.2402 84.139C9.92824 84.4363 9.62118 84.6922 9.48471 84.8043C9.13134 85.0894 7.75933 85.8814 10.2158 86.8928C10.2402 87.4021 10.267 87.909 10.3108 88.3988C10.055 88.4597 9.87706 88.5353 9.86731 88.6352C9.82101 88.9423 10.0257 89.3614 10.4766 89.8342C10.6618 91.1014 10.9298 92.2785 11.271 93.3824C11.1297 93.5579 11.0273 93.7163 11.0127 93.8406C10.9883 94.077 11.232 94.1769 11.5732 94.2695C11.9924 95.4198 12.4895 96.4847 13.0646 97.4619C13.0451 97.5082 13.0208 97.5497 12.9964 97.5887C12.7697 97.9688 12.9964 99.0387 13.7689 99.0387C13.8615 99.0387 13.9809 99.0387 14.1052 99.0411C14.712 99.8672 15.3749 100.62 16.0792 101.312C16.1986 102.063 16.5641 102.672 17.054 102.331C17.0832 102.309 17.1149 102.29 17.1368 102.27C17.6218 102.667 18.1116 103.043 18.6136 103.386C18.7062 103.542 18.8256 103.637 19.0182 103.654C24.3966 107.176 31.0519 107.912 35.3629 107.339C45.8224 105.95 51.1058 96.9087 50.9669 88.2892C50.8207 79.6647 38.8137 73.2993 31.7124 81.6094C24.3429 90.2339 29.6921 90.2339 29.6921 90.2339C33.1672 73.8208 51.5201 85.5037 42.3473 95.9364C29.1024 107.783 11.6122 86.0618 25.1008 78.1343C41.2263 68.6593 53.6183 49.707 40.059 35.5798C28.5029 23.5412 32.5824 20.5559 32.5824 20.5559C32.4776 20.7533 32.6335 20.3707 32.5824 20.5559C33.1112 21.3771 33.5937 22.1545 34.1079 22.9076C34.9682 24.1261 36.1988 24.8182 37.6634 24.7645C39.9469 24.6841 42.2255 24.4307 44.5016 24.2406C45.6543 24.1407 46.8094 23.8994 47.9572 23.936C48.9978 23.9725 50.0433 24.2771 51.0741 24.5013C51.8588 24.6719 52.624 25.0034 53.4185 25.0813C55.7092 25.308 57.3079 24.204 58 22.0424C57.9537 21.8182 57.905 21.594 57.8465 21.365Z" fill="black"/>
</g>
</svg>
